<svg width="76" height="77" viewBox="0 0 76 77" fill="none" xmlns="http://www.w3.org/2000/svg">
<path d="M26.2256 1.1237C25.661 1.31484 24.8438 2.05 21.2331 5.63758C17.3995 9.41631 16.8795 10.0044 16.6566 10.6367C16.4486 11.2983 16.4189 13.1509 16.4189 29.6185V47.8799L15.2747 48.3651C14.6358 48.6297 14.0415 48.865 13.9523 48.9091C13.8483 48.9385 13.6849 48.7326 13.5957 48.4239C13.3134 47.5711 12.1544 46.5272 11.2035 46.2478C10.0742 45.9096 3.74439 45.9096 2.61513 46.2478C1.70875 46.5125 0.787511 47.2623 0.326891 48.1298C0 48.7326 0 48.7473 0 58.5838C0 68.4055 0 68.4349 0.326891 69.023C0.698359 69.7141 1.42644 70.4198 2.15451 70.8021C2.61513 71.0521 3.10547 71.0815 6.50811 71.1256C11.1292 71.1844 11.5898 71.0962 12.7042 69.9787C13.254 69.4494 13.4917 69.0672 13.67 68.4349C13.9077 67.6262 13.9375 67.5968 14.3535 67.6851C14.5764 67.7292 20.6387 69.6259 27.8155 71.8902C37.1913 74.8602 41.1289 76.0512 41.8273 76.11C42.9862 76.2129 44.3978 75.8894 45.4082 75.3013C45.9877 74.9778 66.4927 58.8043 72.1984 54.1728C74.2192 52.5408 74.665 51.8203 74.665 50.2912C74.6501 48.7179 73.8923 47.4241 72.5105 46.7036C72.0499 46.4536 71.6487 46.3801 70.7274 46.3801H69.5239L65.8241 48.4533L62.1094 50.5117L62.0648 42.425L62.0351 34.3235L68.7958 27.6336C73.4317 23.0462 75.6159 20.7672 75.7794 20.3996C76.3292 19.0469 75.9726 18.3705 73.3128 15.7681C71.5298 14.0331 71.0692 13.6655 70.5194 13.5185C69.2267 13.1803 68.9741 13.3421 65.4377 16.8414C63.6844 18.5764 62.2134 19.9879 62.154 19.9879C62.0945 19.9879 62.0202 16.2974 62.0054 11.7835C61.9608 4.02023 61.9459 3.56443 61.6785 3.02042C61.307 2.28526 60.6087 1.59421 59.8657 1.22662C59.3011 0.961967 58.781 0.947266 43.0902 0.917862C28.811 0.903152 26.82 0.917862 26.2256 1.1237ZM59.0782 3.79968L59.5091 4.22607V13.4744V22.708L53.6399 28.5157L47.7707 34.3382L46.6563 37.6317L45.5568 40.9399L34.4573 41.0135L23.3727 41.087L23.0904 41.4398C22.6892 41.9251 22.719 42.7043 23.1796 43.1454L23.5362 43.513H35.9135H48.2908L51.634 42.4103L54.9772 41.3075L57.2357 39.0726L59.5091 36.823V44.3952V51.982L57.518 53.0995L55.5121 54.2169L55.4081 53.7464C55.1555 52.5408 54.1303 51.3939 52.9564 50.9675C52.5998 50.8352 50.1035 50.35 47.3993 49.9089C44.7098 49.4531 38.5881 48.4092 33.8036 47.6005C25.9284 46.2478 24.9329 46.1008 23.2539 46.1008C21.5451 46.1008 20.7576 46.2184 19.2123 46.6889C18.9597 46.7624 18.9448 45.8802 18.9448 29.4862V12.1952H21.664C24.7843 12.1952 25.5273 12.0482 26.4782 11.2395C26.82 10.9601 27.2509 10.4161 27.444 10.0191C27.7561 9.37219 27.7858 9.12224 27.8304 6.34334L27.8898 3.37329H43.2685H58.6473L59.0782 3.79968ZM25.3341 6.90206C25.3341 9.46041 25.1112 9.69566 22.5109 9.69566C21.6194 9.69566 20.8765 9.65156 20.8765 9.59274C20.8765 9.44571 25.0815 5.28471 25.2152 5.28471C25.2895 5.28471 25.3341 6.00517 25.3341 6.90206ZM71.7378 17.753L73.4763 19.4733L72.5848 20.3555L71.6932 21.2377L69.9102 19.4733L68.1272 17.7089L68.9741 16.8708C69.4496 16.4003 69.8656 16.018 69.9102 16.018C69.9548 16.018 70.772 16.7973 71.7378 17.753ZM68.1717 21.2818L69.9102 23.002L69.0484 23.8548C68.5729 24.3106 68.1272 24.6929 68.0529 24.6929C67.9637 24.6929 67.1316 23.9283 66.1955 23.002L64.4868 21.3112L65.3783 20.429C65.8686 19.9438 66.2995 19.5468 66.3441 19.5468C66.3887 19.5468 67.2059 20.3261 68.1717 21.2818ZM60.2966 32.515L54.3086 38.4404L52.5255 36.676L50.7425 34.9116L56.7157 29.0009L62.7037 23.0756L64.4868 24.8399L66.2698 26.6043L60.2966 32.515ZM50.8019 38.4992L51.9609 39.6608L50.2819 40.2048C49.3458 40.5135 48.5137 40.7929 48.4097 40.8223C48.3056 40.8664 48.484 40.146 48.8257 39.1167C49.1674 38.1316 49.4795 37.3377 49.5389 37.3377C49.5835 37.3377 50.163 37.8523 50.8019 38.4992ZM10.9509 48.9238L11.2926 49.262V58.5838V67.9056L10.9509 68.2438C10.624 68.5819 10.5645 68.5819 6.89444 68.5819H3.1649L2.8083 68.1703L2.45169 67.7586V58.6132C2.45169 48.6885 2.42197 48.9973 3.25406 48.6591C3.4175 48.5856 5.15597 48.5415 7.0876 48.5562C10.5348 48.5856 10.624 48.5856 10.9509 48.9238ZM38.3949 50.9234C45.8688 52.2026 52.0946 53.2906 52.2432 53.3788C53.0159 53.7758 53.1942 54.8492 52.6147 55.5255L52.2581 55.9372L40.386 56.0107C27.5183 56.0842 28.0087 56.0548 27.7412 56.8929C27.5629 57.4369 27.6818 57.8339 28.0978 58.2309C28.4693 58.5691 28.5881 58.5838 31.1736 58.6573L33.8778 58.7308L37.2953 60.8481C39.1675 61.9949 40.9506 63.0682 41.2329 63.2153C42.0947 63.6564 42.9862 63.7152 43.9075 63.4064C44.3532 63.2594 50.4899 59.9071 57.518 55.9666C66.9979 50.6735 70.4451 48.8062 70.8017 48.8062C71.4704 48.8062 72.139 49.4972 72.139 50.1735C72.139 50.4676 72.0944 50.7911 72.0499 50.9234C71.931 51.2469 44.799 72.7724 43.9669 73.1987C42.6742 73.8898 42.1987 73.8163 37.8154 72.4342C32.9566 70.8756 19.0786 66.4794 16.5972 65.7001C15.5868 65.3914 14.5764 65.1267 14.3386 65.1267H13.8929V58.3926V51.6733L17.0578 50.3206C20.6685 48.7767 21.7383 48.4974 23.551 48.5709C24.2494 48.6003 30.921 49.6589 38.3949 50.9234ZM45.4082 59.863C44.2046 60.5246 43.0902 61.0539 42.8674 61.0539C42.5256 61.0539 38.7069 58.9072 38.7069 58.7161C38.7069 58.6867 40.698 58.6573 43.1348 58.6573H47.5479L45.4082 59.863Z" fill="black"/>
<path d="M23.6997 15.9717C22.8082 16.2955 22.4962 17.4436 23.1499 18.047L23.4917 18.3708H39.2419H55.007L55.319 18.0323C55.7797 17.5466 55.7499 16.7518 55.2596 16.2955L54.8733 15.9423L39.4054 15.9129C30.8913 15.8981 23.8186 15.9276 23.6997 15.9717Z" fill="black"/>
<path d="M23.4469 22.3384C22.7337 22.618 22.5851 23.7367 23.1795 24.3254C23.5212 24.6786 23.6252 24.6934 25.2448 24.6934C26.8199 24.6934 26.9833 24.6639 27.3548 24.3401C27.9343 23.8544 27.9343 23.0302 27.3548 22.5445C26.9833 22.2206 26.8347 22.1912 25.3637 22.2059C24.487 22.2059 23.6252 22.2648 23.4469 22.3384Z" fill="black"/>
<path d="M31.0546 22.3678C30.2968 22.7947 30.1483 23.7367 30.7575 24.3254L31.1141 24.6934H42.377C54.2788 24.6786 53.9073 24.7081 54.2788 24.0016C54.5611 23.4864 54.4868 23.0743 54.0262 22.618L53.5953 22.1912H42.4661C34.383 22.2059 31.2775 22.2501 31.0546 22.3678Z" fill="black"/>
<path d="M23.1796 28.8813C22.5704 29.47 22.6892 30.4268 23.4173 30.7947C23.9819 31.0891 34.1156 31.1185 34.6951 30.8242C35.4974 30.4268 35.6312 29.4406 34.9922 28.8077C34.7099 28.5281 34.4722 28.5133 29.1231 28.5133H23.5362L23.1796 28.8813Z" fill="black"/>
<path d="M38.3355 28.8814C37.8155 29.3819 37.8452 30.0295 38.395 30.5888L38.8259 31.0156H42.9417C47.117 31.0156 47.4588 30.9715 47.8748 30.4416C48.1869 30.0442 48.0977 29.2788 47.6965 28.8814L47.3399 28.5135H43.016H38.6922L38.3355 28.8814Z" fill="black"/>
<path d="M23.6997 34.792C22.8082 35.1306 22.4962 36.2639 23.1499 36.8674L23.4917 37.1912H32.8972H42.2879L42.6446 36.8232C43.12 36.3669 43.12 35.7193 42.6594 35.1747L42.3028 34.7626L33.1053 34.7332C28.0533 34.7184 23.8186 34.7479 23.6997 34.792Z" fill="black"/>
<path d="M5.72064 51.2007C4.91827 51.5981 4.78454 52.5842 5.42346 53.2171C5.67606 53.4673 5.92866 53.5115 6.87962 53.5115C8.11289 53.5115 8.54379 53.3054 8.76667 52.6284C8.91526 52.1721 8.57351 51.4656 8.08317 51.2301C7.57798 50.9652 6.22583 50.9505 5.72064 51.2007Z" fill="black"/>
<path d="M5.42346 63.9485C4.78454 64.5814 4.91827 65.5676 5.72064 65.965C6.19612 66.2005 7.62255 66.2005 8.09803 65.965C8.88554 65.5676 9.01927 64.552 8.36549 63.9485C7.89001 63.5217 5.85437 63.5217 5.42346 63.9485Z" fill="black"/>
</svg>
