<svg width="83" height="83" viewBox="0 0 83 83" fill="none" xmlns="http://www.w3.org/2000/svg">
<path d="M21.4795 1.52423C12.6445 2.98322 5.44688 8.99747 2.56133 17.3137C1.62109 20.0695 1.39414 21.4799 1.37793 24.9653C1.37793 27.7049 1.42656 28.3533 1.75078 29.8285C2.2209 31.936 3.04766 34.1731 4.02031 36.0211L4.76602 37.4315L3.80957 42.4569C2.77207 47.9037 2.77207 48.1631 3.59883 48.617C3.98789 48.844 4.47422 48.7791 9.64551 47.8389C12.7256 47.2715 15.4166 46.85 15.6111 46.8986C15.8057 46.9473 16.5676 47.2067 17.3133 47.4822C21.1553 48.9088 26.1482 49.152 30.3955 48.1469C31.1088 47.9848 31.8221 47.7902 31.968 47.7416C32.2273 47.6444 32.2436 48.3576 32.2922 59.3649L32.3408 71.0854L32.7623 71.9932C33.2973 73.1442 34.1727 74.0195 35.3236 74.5545L36.2314 74.976L51.648 75.0246L67.0647 75.0571L70.1934 78.2992C71.9279 80.1149 73.4842 81.5901 73.6949 81.6387C74.2623 81.7846 74.8621 81.5901 75.0891 81.1686C75.235 80.9416 75.3322 79.8393 75.3809 77.975L75.4619 75.1381L76.7588 75.0408C78.9635 74.8787 80.4062 73.9709 81.3141 72.1877L81.7842 71.2475V57.5492V43.851L81.4275 43.0891C80.9412 42.0192 79.7416 40.8033 78.7365 40.3494L77.8936 39.9604L60.7586 39.9117L43.6236 39.8793L44.6611 38.3393C47.4008 34.3027 48.6977 30.0879 48.7139 25.1274C48.7139 20.102 47.5467 16.0979 44.8557 12.0289C41.3541 6.74416 36.426 3.32365 30.1523 1.83224C28.0449 1.3297 23.5869 1.16759 21.4795 1.52423ZM29.2121 4.21525C35.6479 5.52834 41.0461 9.67834 44.0127 15.5791C45.5527 18.6754 46.2012 21.4475 46.2012 25.0463C46.2012 30.7201 44.2072 35.6483 40.2518 39.7334C37.7553 42.311 35.0318 44.0455 31.7734 45.1317C29.1311 46.007 27.4451 46.2502 24.3975 46.1529C21.5119 46.0719 19.8746 45.7315 17.0701 44.6453L15.5787 44.0779L10.683 44.9695C7.99199 45.4721 5.75488 45.8611 5.73867 45.8287C5.70625 45.7963 6.04668 43.8834 6.48438 41.5653C6.93828 39.2633 7.29492 37.2369 7.29492 37.0586C7.29492 36.8965 6.93828 36.1346 6.50059 35.3565C3.48535 30.0231 2.9666 23.7981 5.0416 17.8811C7.44082 11.0725 13.4713 5.82013 20.6689 4.23146C23.1816 3.66408 26.4887 3.66408 29.2121 4.21525ZM76.9047 42.4731C77.7801 42.6676 78.315 43.0891 78.7527 43.932L79.1094 44.6453V57.5492C79.1094 69.7561 79.0932 70.4694 78.8014 71.1016C78.2988 72.2201 77.6018 72.5119 75.3322 72.6254C72.7871 72.7389 72.7871 72.7227 72.7871 75.4461L72.7709 77.4076L70.4689 75.0571L68.167 72.7065L52.4424 72.6254C34.967 72.5281 36.1342 72.6092 35.3074 71.4582L34.9346 70.9233L34.8859 58.8299L34.8535 46.7203L36.1018 46.0395C37.6904 45.1641 38.8576 44.3697 40.268 43.2188L41.3865 42.311H58.8295C68.7182 42.311 76.548 42.3758 76.9047 42.4731Z" fill="black"/>
<path d="M23.7491 8.49443C23.3114 8.6079 22.6953 8.81865 22.3873 8.98075C21.593 9.40224 20.3934 10.6667 19.9719 11.5259C19.2911 12.9524 19.2748 13.4388 19.7936 19.5989C20.3772 26.3265 20.442 26.602 21.82 27.8665C24.5596 30.3792 28.7907 29.0661 29.6498 25.4349C29.9254 24.2839 30.6711 14.7843 30.6063 13.455C30.4604 11.072 28.8879 9.09423 26.6346 8.51064C25.5485 8.21884 24.8514 8.21884 23.7491 8.49443ZM26.051 10.8774C26.6832 11.1206 27.4776 11.9149 27.818 12.6768C28.0936 13.2929 28.0936 13.4712 27.6559 18.7722C27.3803 22.1278 27.1209 24.4946 26.975 24.9161C26.5049 26.2292 24.9325 26.8128 23.8463 26.0671C22.7116 25.289 22.7278 25.3862 22.209 19.3071C21.6903 13.4388 21.7065 13.1145 22.3549 12.0608C22.9709 11.0558 24.9 10.4397 26.051 10.8774Z" fill="black"/>
<path d="M23.6517 32.8109C21.0904 33.7187 19.8259 36.2963 20.7013 38.8414C21.058 39.9113 22.3386 41.192 23.4086 41.5486C24.9972 42.0836 26.521 41.8566 27.8179 40.8678C29.4228 39.6357 30.055 37.5121 29.358 35.6478C28.4988 33.3621 25.8078 32.0328 23.6517 32.8109ZM26.132 35.4209C26.2941 35.4857 26.5697 35.7937 26.7642 36.1017C27.7855 37.739 26.2941 39.7978 24.4623 39.2467C22.8087 38.7441 22.3711 36.6205 23.7166 35.5992C24.4623 35.0318 25.0783 34.9832 26.132 35.4209Z" fill="black"/>
<path d="M40.122 46.3633C39.1656 46.6551 38.9224 47.6926 39.6357 48.3896L40.0248 48.7949H48.6814C57.1921 48.7949 57.3543 48.7949 57.7757 48.4545C58.2945 48.0492 58.3431 47.2387 57.8892 46.6713L57.5812 46.2822L49.0867 46.2498C44.3531 46.2336 40.3976 46.2822 40.122 46.3633Z" fill="black"/>
<path d="M39.7816 53.1395C39.5223 53.3178 39.2305 53.9176 39.2305 54.3066C39.2305 54.485 39.4088 54.8254 39.6357 55.0361L40.0248 55.4414H56.9814H73.9381L74.3271 55.0361C74.8135 54.5498 74.8459 53.9986 74.392 53.4312L74.0678 53.0098H57.0139C47.6277 53.0098 39.8789 53.0746 39.7816 53.1395Z" fill="black"/>
<path d="M39.5709 60.0777C39.3764 60.3209 39.2305 60.6775 39.2305 60.8721C39.2305 61.0666 39.3764 61.4232 39.5709 61.6664L39.8951 62.0879H56.9814H74.0678L74.392 61.6664C74.8297 61.1152 74.8297 60.6289 74.392 60.0777L74.0678 59.6562H56.9814H39.8951L39.5709 60.0777Z" fill="black"/>
<path d="M39.6356 66.546C38.9386 67.2268 39.1655 68.2481 40.0571 68.5561C40.7704 68.7993 73.1761 68.8155 73.8893 68.5561C74.4567 68.3616 74.7971 67.6807 74.635 67.0485C74.4081 66.0921 75.397 66.1407 56.9327 66.1407H40.0247L39.6356 66.546Z" fill="black"/>
<path d="M62.3309 1.68591C58.4565 2.43161 55.1009 5.10642 53.6095 8.68903C51.8262 12.9039 52.7016 17.6537 55.879 21.1066C57.2893 22.6467 57.7757 23.4248 58.0999 24.7217C58.4727 26.132 58.4403 26.7156 57.954 27.1047C57.2569 27.6396 56.9003 28.5474 56.9003 29.747C56.9003 31.3519 57.5487 32.3894 58.878 32.892C59.1698 33.0054 59.3481 33.2486 59.494 33.7998C60.0128 35.664 62.0229 37.1392 64.0655 37.1717C65.3948 37.1879 66.5782 36.7826 67.486 35.972C68.1993 35.356 69.0585 33.9295 69.0585 33.3945C69.0585 33.2162 69.2854 33.0541 69.6907 32.9406C70.5175 32.6812 71.1011 32.1949 71.4901 31.433C72.2196 30.0226 72.0413 28.4826 71.0524 27.3802C70.5012 26.7642 70.485 26.6994 70.5823 25.8564C70.6958 24.8027 71.1821 23.4572 71.6846 22.7601C71.8954 22.4683 72.56 21.674 73.1598 20.9769C74.4729 19.4531 75.0403 18.4967 75.6401 16.7783C76.0616 15.5949 76.094 15.2707 76.094 13.2119C76.094 11.1531 76.0616 10.8289 75.6563 9.64548C74.3108 5.78728 71.1983 2.88552 67.3239 1.88044C65.9136 1.50759 63.6764 1.42653 62.3309 1.68591ZM66.9997 4.27966C69.3179 5.00915 71.4901 6.84099 72.5276 8.9322C73.1436 10.1804 73.5975 11.915 73.5975 13.066C73.5975 15.1896 72.6087 17.5402 70.8741 19.5179C68.9936 21.6578 68.1669 23.3275 67.9723 25.3863L67.8751 26.4238H66.7727H65.6542V22.9709V19.5179L66.87 18.3183C67.8913 17.3133 68.0858 17.0215 68.0858 16.5838C68.0858 15.8867 67.5995 15.4004 66.9024 15.4004C66.4647 15.4004 66.2054 15.5787 65.411 16.373L64.4546 17.3295L63.4495 16.373C62.6065 15.5625 62.3471 15.4004 61.877 15.4004C61.4555 15.4004 61.2124 15.5138 60.9692 15.8218C60.3856 16.5676 60.5153 16.9404 61.8446 18.3021L63.0604 19.5504V22.9871V26.4238H61.9257H60.7909V25.6781C60.7909 23.7166 59.8507 21.674 58.0675 19.7287C55.9925 17.4754 55.263 15.757 55.263 13.1957C55.263 11.3801 55.4575 10.5047 56.2194 8.91599C57.3218 6.64646 59.802 4.70115 62.2985 4.11755C63.4981 3.84196 65.8649 3.92302 66.9997 4.27966ZM69.2044 29.2445C69.3179 29.3742 69.3827 29.7308 69.3503 30.0226L69.3016 30.5576L64.4059 30.6062L59.494 30.6386L59.3968 30.2496C59.2509 29.6336 59.3805 29.2769 59.8182 29.1634C60.0452 29.0986 62.2012 29.05 64.6167 29.0338C68.2641 29.0175 69.0585 29.05 69.2044 29.2445ZM66.4647 33.2162C66.4647 33.281 66.3026 33.5566 66.1081 33.7998C65.4596 34.6427 64.0169 34.9508 63.0604 34.4482C62.6065 34.205 61.9257 33.4756 61.9257 33.2162C61.9257 33.1351 62.947 33.0703 64.1952 33.0703C65.4434 33.0703 66.4647 33.1351 66.4647 33.2162Z" fill="black"/>
<path d="M15.1734 52.6207C13.7631 52.9611 12.0934 53.9176 11.0234 54.9875C10.0184 55.9926 8.91602 57.9055 8.91602 58.6674C8.91602 60.5154 10.5209 62.0879 12.4176 62.0879C13.3254 62.0879 14.5736 61.326 15.1572 60.3857C16.0975 58.9268 17.524 58.5701 18.5777 59.5428C19.0316 59.9643 19.1775 60.2236 19.2424 60.791C19.3396 61.7799 18.8857 62.4932 17.8645 62.9147C16.4703 63.5145 16.292 63.6279 15.4652 64.4385C14.3305 65.5732 13.8928 66.708 13.8766 68.6533C13.8604 70.3879 14.2008 71.2147 15.2545 71.9766C16.4379 72.8195 18.0752 72.7223 19.4045 71.7334C19.9881 71.2795 20.5717 70.2258 20.5879 69.626C20.5879 69.3828 20.8311 69.1721 21.4471 68.8641C21.901 68.6371 22.6629 68.1184 23.1168 67.7131C26.8939 64.3088 27.0723 58.3594 23.5059 54.793C21.4957 52.799 18.1076 51.9074 15.1734 52.6207ZM19.3883 55.1334C21.674 55.9926 23.0844 57.9217 23.2951 60.483C23.4572 62.3797 22.9061 63.9522 21.593 65.3787C20.9121 66.1082 19.2262 67.1133 18.7074 67.1133C18.3346 67.1133 18.0914 67.6482 18.0104 68.6857C17.8969 69.9178 17.6537 70.1934 16.908 69.934C16.4703 69.7881 16.4541 69.7557 16.5027 68.7344C16.6 66.8701 17.3619 65.8488 19.0479 65.3301C19.9557 65.0383 21.2688 63.6766 21.6092 62.6715C22.5494 59.8994 20.7986 57.0463 17.8158 56.4951C16.9566 56.333 15.5463 56.6734 14.7033 57.2408C14.298 57.5164 13.6982 58.1162 13.3902 58.6025C12.758 59.5428 12.3527 59.7697 11.834 59.4941C11.0396 59.0727 11.3314 58.0676 12.677 56.641C14.3791 54.8416 17.0215 54.258 19.3883 55.1334Z" fill="black"/>
<path d="M15.9191 74.165C14.9302 74.473 14.2493 75.0566 13.7144 76.0131C12.3202 78.5744 14.1845 81.7031 17.1025 81.7031C20.0204 81.7031 21.8847 78.5744 20.4906 76.0131C19.9394 75.0242 19.2585 74.473 18.221 74.1488C17.297 73.8732 16.8269 73.8732 15.9191 74.165ZM17.8482 76.5643C18.1886 76.8236 18.4804 77.391 18.4804 77.8125C18.4804 78.2988 17.6212 79.1094 17.1025 79.1094C16.5837 79.1094 15.7245 78.2988 15.7245 77.8125C15.7245 77.0182 16.3406 76.3697 17.1025 76.3697C17.3781 76.3697 17.7023 76.4508 17.8482 76.5643Z" fill="black"/>
</svg>
