<svg width="122" height="102" viewBox="0 0 122 102" fill="none" xmlns="http://www.w3.org/2000/svg">
<rect opacity="0.37" width="86" height="84" rx="42" fill="#B2D7CF"/>
<path d="M74.1932 15.6081C72.6246 15.844 70.0441 16.737 68.6274 17.5457C64.8831 19.6855 62.0496 23.291 60.7509 27.5706L60.363 28.8342L60.3124 44.3685C60.2787 57.7125 60.2281 59.9196 60.0257 59.9196C59.3679 59.9196 57.8668 60.6778 57.1753 61.3518C56.5007 61.992 56.1971 62.1436 54.7635 62.5312C53.8527 62.7839 52.5878 63.2556 51.93 63.5926C50.4289 64.3676 48.5905 66.1873 47.8147 67.6362C47.1232 68.9504 42.485 83.1874 42.232 84.788C41.8272 87.3321 42.5693 90.0953 44.2728 92.3867L44.9137 93.2459L41.9284 93.3133C39.2467 93.3639 38.8757 93.3976 38.2516 93.7345C37.442 94.1558 36.5481 95.1161 36.2277 95.908C35.9241 96.6325 35.9241 98.351 36.2277 99.0755C36.5481 99.8505 37.442 100.828 38.2516 101.249L38.9431 101.62H79H119.057L119.748 101.249C120.558 100.828 121.452 99.8505 121.772 99.0755C122.076 98.351 122.076 96.6325 121.772 95.908C121.452 95.1161 120.558 94.1558 119.748 93.7345C119.124 93.3976 118.753 93.3639 116.072 93.3133L113.086 93.2459L113.727 92.3867C115.431 90.1121 116.139 87.4838 115.768 84.9059C115.549 83.3222 110.911 69.0347 110.185 67.6362C109.409 66.1873 107.571 64.3676 106.07 63.5926C105.429 63.2556 104.147 62.7839 103.237 62.5312C101.803 62.1436 101.499 61.992 100.825 61.3518C100.133 60.6778 98.6152 59.9196 97.9743 59.9196C97.7551 59.9196 97.7213 59.4479 97.7213 57.0049C97.7213 53.6352 97.637 53.3487 96.5576 53.3487C95.3769 53.3487 95.2757 53.6183 95.2251 56.988L95.1745 59.9196H94.0277C92.5434 59.9196 89.2377 59.0772 88.6811 58.5549C88.2595 58.1674 88.1245 57.6282 87.6692 54.5618L87.3824 52.6579L88.2763 51.8661C90.3003 50.097 92.341 46.8452 92.847 44.5538L93.0663 43.6103L94.112 43.5429L95.1745 43.4924L95.2251 46.2892C95.2757 48.7828 95.3095 49.1366 95.5962 49.4567C96.0178 49.9285 96.9286 49.9285 97.384 49.4736C97.7382 49.1198 97.7382 49.0018 97.6876 39.0612C97.637 29.306 97.6201 28.969 97.2659 27.6885C95.5962 21.7915 91.0761 17.3941 85.038 15.844C83.8068 15.5239 75.9304 15.3554 74.1932 15.6081ZM84.161 18.287C86.9439 18.8599 89.3726 20.2246 91.4134 22.3981C92.9145 23.965 93.8253 25.4982 94.5336 27.5706C94.989 28.9353 95.0902 29.4744 95.1577 31.3278L95.242 33.5012L89.1871 33.4338C82.4238 33.3496 82.1877 33.3159 79.759 32.1365C75.8292 30.1989 73.2824 26.189 73.2318 21.8421C73.2149 20.7132 73.2824 20.4268 73.6535 19.7697C74.1426 18.961 74.8341 18.3544 75.5931 18.1354C75.8461 18.0512 77.5327 17.9838 79.3373 17.9838C81.9347 17.9669 82.9467 18.0343 84.161 18.287ZM70.9886 19.4833C70.4995 21.0165 70.6513 23.7291 71.3428 25.9026C71.6633 26.9135 71.7307 27.4358 71.6633 27.9749C71.4103 29.6261 70.4152 30.5022 68.3575 30.856C66.7046 31.1424 65.7939 31.6816 65.2204 32.7093C64.8662 33.3664 64.8157 33.3833 63.8037 33.4675L62.7749 33.5518L62.8423 31.3615C62.9098 29.4576 62.9941 28.969 63.4664 27.5706C64.6301 24.1166 66.9239 21.3872 70.1453 19.6181C71.1573 19.0621 71.1236 19.0621 70.9886 19.4833ZM77.617 33.8719C79.2867 34.866 81.3612 35.5904 83.2502 35.8263C84.0092 35.9106 86.0331 35.9948 87.7366 35.9948H90.84L90.7556 39.4824C90.705 41.9592 90.587 43.2902 90.4015 43.9978C89.4738 47.4181 86.7247 50.535 82.9973 52.4052C79.7758 54.0227 78.0892 53.9721 74.6486 52.1693C71.8657 50.7204 69.6731 48.5975 68.4587 46.1881C67.4468 44.1663 67.3287 43.4418 67.2444 38.8253C67.1938 36.534 67.2106 34.4616 67.2612 34.2257C67.3962 33.6866 67.8347 33.4675 69.1502 33.2822C69.7574 33.198 70.6007 32.9452 71.0392 32.7262C71.8319 32.3218 73.4342 30.7886 73.4342 30.418C73.4342 30.3169 74.0751 30.8729 74.8341 31.631C75.6943 32.4903 76.7905 33.3664 77.617 33.8719ZM64.6639 38.5221V41.0493H64.1073C63.8037 41.0493 63.382 40.9314 63.1796 40.7798C62.8255 40.5439 62.8086 40.3923 62.8086 38.5726C62.8086 36.2981 62.9435 35.9948 64.0229 35.9948H64.6639V38.5221ZM94.8878 36.2812C95.1408 36.5171 95.1914 36.8204 95.1914 38.5389C95.1914 40.3923 95.1745 40.5439 94.8204 40.7798C94.618 40.9314 94.1963 41.0493 93.8927 41.0493H93.3361V38.5221V35.9948H93.9602C94.2975 35.9948 94.7192 36.1127 94.8878 36.2812ZM65.153 44.5538C65.659 46.8621 67.7672 50.1981 69.7237 51.8492L70.6007 52.5905L70.4826 53.5172C70.1116 56.5331 69.7405 58.1169 69.3358 58.5212C68.7623 59.0941 65.659 59.9196 64.0398 59.9196H62.8086V51.6976V43.4924L63.8712 43.5429L64.9337 43.6103L65.153 44.5538ZM75.8966 55.5053C78.6964 56.4657 81.0239 56.2298 84.0767 54.6798C84.6333 54.4102 85.0718 54.2417 85.0718 54.3091C85.0718 55.0673 85.8308 58.7402 86.0837 59.2626L86.4211 59.9196H79H71.5789L71.9163 59.2626C72.1693 58.7402 72.9282 55.0673 72.9282 54.3091C72.9282 54.2417 73.3667 54.4102 73.9065 54.6629C74.4293 54.9325 75.3401 55.32 75.8966 55.5053ZM98.5815 62.8344C98.8851 63.0366 99.3236 63.4747 99.526 63.7779L99.9139 64.3508V76.448V88.5621H79H58.0861V83.5075C58.0861 79.3796 58.0355 78.3519 57.8331 77.9644C57.4452 77.1893 56.7199 77.0545 55.9947 77.6274L55.5562 77.9644L55.5225 83.2211L55.4719 88.4778L53.6672 88.5621C51.7445 88.6463 51.3397 88.8148 50.6144 89.7751C50.2434 90.2806 50.1591 91.3926 50.3783 92.572L50.5301 93.2796L49.3663 93.2628H48.2195L47.0726 91.8812C45.0992 89.5056 44.3571 87.3658 44.745 85.1418C44.998 83.6591 49.5856 69.5907 50.1085 68.6977C51.053 67.0802 52.4528 65.9345 54.2912 65.3112C54.8309 65.1258 55.3369 64.9742 55.4213 64.9742C55.4887 64.9742 55.5562 66.8275 55.5562 69.0852V73.2131L55.9947 73.5501C56.7199 74.1229 57.4452 73.9881 57.8331 73.2131C58.0355 72.8424 58.0861 71.8989 58.0861 68.5461C58.0861 64.4687 58.103 64.3339 58.474 63.7779C58.6764 63.4747 59.1149 63.0366 59.4185 62.8344L59.992 62.4469H79H98.008L98.5815 62.8344ZM103.726 65.3112C105.53 65.9345 107.251 67.3835 108.094 69.0178C108.482 69.7592 113.053 84.013 113.238 85.0744C113.643 87.2816 112.884 89.5056 110.927 91.8812L109.781 93.2628L108.634 93.2796H107.487L107.622 92.4709C107.925 90.6513 107.689 89.8088 106.593 89.0001C106.222 88.7137 105.8 88.6295 104.333 88.5621L102.528 88.4778L102.478 76.7176C102.461 70.2646 102.511 64.9742 102.579 64.9742C102.663 64.9742 103.169 65.1258 103.726 65.3112ZM105.193 91.6285C105.142 91.9318 104.991 92.4372 104.856 92.7236L104.603 93.2796H79H53.3973L53.1443 92.7236C53.0094 92.4372 52.8576 91.9318 52.807 91.6285L52.7058 91.0893H79H105.294L105.193 91.6285ZM119.074 96.3629C119.63 97.0031 119.63 97.9804 119.074 98.6206L118.669 99.0924H79H39.331L38.9263 98.6206C38.2179 97.795 38.4877 96.3461 39.4322 95.9754C39.6346 95.8911 57.2259 95.8406 79.2193 95.8574L118.669 95.8911L119.074 96.3629Z" fill="black"/>
<path d="M77.2121 70.0961C75.5255 70.6352 74.0076 72.2021 73.5016 73.887C73.1306 75.1338 73.2486 76.9534 73.7715 78.0485C74.2943 79.11 75.4749 80.2894 76.5544 80.8117C77.2627 81.1655 77.6338 81.2329 78.9999 81.2329C80.4167 81.2329 80.7203 81.1824 81.5636 80.7612C82.643 80.2388 83.6718 79.1605 84.2621 77.9812C84.8187 76.8355 84.8187 74.3419 84.2621 73.1962C83.6718 72.0168 82.643 70.9385 81.5804 70.433C80.4504 69.877 78.359 69.7086 77.2121 70.0961ZM80.5347 72.7244C82.1539 73.55 82.7105 75.7403 81.7154 77.3241C79.9782 80.0367 75.7954 78.8067 75.7954 75.5887C75.7954 74.4093 76.2845 73.4995 77.2627 72.8761C78.2578 72.2695 79.5059 72.2021 80.5347 72.7244Z" fill="black"/>
</svg>
