<svg width="96" height="62" viewBox="0 0 96 62" fill="none" xmlns="http://www.w3.org/2000/svg">
<path d="M12.508 58.698L11.9533 59.53V59.5301L12.508 58.698ZM5.998 51.816L5.13089 52.3141L5.13721 52.3251L5.1438 52.3359L5.998 51.816ZM2.185 42.237L1.2109 42.4631L1.21281 42.4713L1.21486 42.4795L2.185 42.237ZM2.185 21.219L1.21292 20.9844L1.211 20.9923L1.20921 21.0003L2.185 21.219ZM6.091 11.361L6.95481 11.8649L6.95924 11.8571L6.091 11.361ZM12.88 4.107L13.4217 4.94757L13.4282 4.94336L13.4347 4.93905L12.88 4.107ZM38.362 10.896L37.4949 11.3941L37.5012 11.4051L37.5078 11.4159L38.362 10.896ZM42.175 20.382L41.2009 20.6081L41.2033 20.6184L41.2059 20.6287L42.175 20.382ZM42.268 41.214L41.2922 40.9953L42.268 41.214ZM38.362 51.165L37.5014 50.6557L37.4975 50.6622L37.4938 50.6689L38.362 51.165ZM31.666 58.512L32.2293 59.3382L31.666 58.512ZM28.411 54.141L29.2863 54.6247L29.2915 54.6151L28.411 54.141ZM31.201 44.748L30.2133 44.5912L30.2114 44.6043L31.201 44.748ZM31.48 22.428L30.4886 22.5589L30.4889 22.5614L31.48 22.428ZM29.341 13.593L28.3993 13.9293L28.4028 13.9392L28.4065 13.949L29.341 13.593ZM25.9 7.362L25.1366 8.00794L25.1429 8.01534L25.1493 8.02262L25.9 7.362ZM16.042 8.571L15.1615 8.09688L15.1571 8.10525L16.042 8.571ZM13.252 17.871L12.2648 17.7118L12.2635 17.7195L12.2624 17.7273L13.252 17.871ZM13.066 40.191L12.0746 40.3219L12.076 40.3325L12.0776 40.3431L13.066 40.191ZM15.112 49.026L14.1611 49.3356L14.1644 49.3455L14.1678 49.3554L15.112 49.026ZM18.46 55.35L17.6943 55.9932L17.7017 56.002L17.7093 56.0106L18.46 55.35ZM21.715 60.302C18.3521 60.302 15.4818 59.4787 13.0627 57.8659L11.9533 59.5301C14.7422 61.3893 18.0099 62.302 21.715 62.302V60.302ZM13.0627 57.866C10.5881 56.2162 8.5175 54.0319 6.8522 51.2961L5.1438 52.3359C6.9505 55.3041 9.21988 57.7078 11.9533 59.53L13.0627 57.866ZM6.86511 51.3179C5.23997 48.4889 4.00221 45.3827 3.15514 41.9945L1.21486 42.4795C2.10379 46.0353 3.40803 49.3151 5.13089 52.3141L6.86511 51.3179ZM3.1591 42.0109C2.36953 38.6097 1.976 35.2445 1.976 31.914H-0.0239998C-0.0239998 35.4035 0.388469 38.9203 1.2109 42.4631L3.1591 42.0109ZM1.976 31.914C1.976 28.4566 2.37019 24.965 3.16079 21.4377L1.20921 21.0003C0.387807 24.665 -0.0239998 28.3033 -0.0239998 31.914H1.976ZM3.15708 21.4536C4.00394 17.9452 5.27126 14.7509 6.95478 11.8649L5.22722 10.8571C3.43875 13.9231 2.10206 17.3008 1.21292 20.9844L3.15708 21.4536ZM6.95924 11.8571C8.62006 8.95071 10.7739 6.6539 13.4217 4.94757L12.3383 3.26643C9.40605 5.1561 7.03394 7.69529 5.22276 10.8649L6.95924 11.8571ZM13.4347 4.93905C16.04 3.2022 19.1273 2.317 22.738 2.317V0.316996C18.7847 0.316996 15.3 1.2918 12.3253 3.27495L13.4347 4.93905ZM22.738 2.317C26.1009 2.317 28.9712 3.14032 31.3903 4.75305L32.4997 3.08895C29.7108 1.22967 26.4431 0.316996 22.738 0.316996V2.317ZM31.3903 4.75305C33.8564 6.39712 35.892 8.60396 37.4949 11.3941L39.2291 10.3979C37.484 7.36003 35.2416 4.91687 32.4997 3.08895L31.3903 4.75305ZM37.5078 11.4159C39.1848 14.1711 40.4173 17.2328 41.2009 20.6081L43.1491 20.1559C42.3207 16.5872 41.0112 13.3249 39.2162 10.3761L37.5078 11.4159ZM41.2059 20.6287C42.0544 23.9622 42.477 27.2583 42.477 30.519H44.477C44.477 27.0837 44.0316 23.6218 43.1441 20.1353L41.2059 20.6287ZM42.477 30.519C42.477 33.9763 42.0828 37.468 41.2922 40.9953L43.2438 41.4327C44.0652 37.768 44.477 34.1297 44.477 30.519H42.477ZM41.2922 40.9953C40.5081 44.4935 39.2437 47.7118 37.5014 50.6557L39.2226 51.6743C41.0763 48.5422 42.4159 45.1265 43.2438 41.4327L41.2922 40.9953ZM37.4938 50.6689C35.8284 53.5832 33.6979 55.9163 31.1027 57.6858L32.2293 59.3382C35.0902 57.3877 37.4236 54.8228 39.2302 51.6611L37.4938 50.6689ZM31.1027 57.6858C28.5693 59.4131 25.4576 60.302 21.715 60.302V62.302C25.7844 62.302 29.3067 61.3309 32.2293 59.3382L31.1027 57.6858ZM23.203 58.675C25.8295 58.675 27.858 57.209 29.2862 54.6247L27.5358 53.6573C26.36 55.785 24.9165 56.675 23.203 56.675V58.675ZM29.2915 54.6151C30.6667 52.0611 31.6222 48.8072 32.1906 44.8917L30.2114 44.6043C29.6638 48.3768 28.7593 51.3849 27.5305 53.6669L29.2915 54.6151ZM32.1886 44.9048C32.8178 40.9408 33.131 36.7029 33.131 32.193H31.131C31.131 36.6111 30.8242 40.7432 30.2134 44.5912L32.1886 44.9048ZM33.131 32.193C33.131 28.8628 32.9111 25.5633 32.4711 22.2946L30.4889 22.5614C30.9169 25.7407 31.131 28.9512 31.131 32.193H33.131ZM32.4714 22.2971C32.0291 18.9481 31.2998 15.9257 30.2755 13.237L28.4065 13.949C29.3662 16.4683 30.0629 19.3359 30.4886 22.5589L32.4714 22.2971ZM30.2827 13.2567C29.3238 10.5715 28.1214 8.37266 26.6507 6.70137L25.1493 8.02262C26.4066 9.45134 27.4982 11.4065 28.3993 13.9293L30.2827 13.2567ZM26.6634 6.71605C25.1461 4.9229 23.3016 3.944 21.157 3.944V5.944C22.6084 5.944 23.9259 6.5771 25.1366 8.00794L26.6634 6.71605ZM21.157 3.944C18.5675 3.944 16.5765 5.46908 15.1615 8.0969L16.9225 9.0451C18.1115 6.83692 19.5305 5.944 21.157 5.944V3.944ZM15.1571 8.10525C13.8491 10.5905 12.8948 13.8056 12.2648 17.7118L14.2392 18.0302C14.8492 14.2484 15.7549 11.2635 16.9269 9.03674L15.1571 8.10525ZM12.2624 17.7273C11.6965 21.6253 11.415 25.8279 11.415 30.333H13.415C13.415 25.9101 13.6915 21.8047 14.2416 18.0147L12.2624 17.7273ZM11.415 30.333C11.415 33.6632 11.6349 36.9929 12.0746 40.3219L14.0574 40.0601C13.6291 36.8171 13.415 33.5748 13.415 30.333H11.415ZM12.0776 40.3431C12.5806 43.6121 13.2739 46.6107 14.1611 49.3356L16.0629 48.7164C15.2141 46.1093 14.5434 43.2179 14.0544 40.0389L12.0776 40.3431ZM14.1678 49.3554C15.1231 52.094 16.2901 54.3215 17.6943 55.9932L19.2257 54.7068C18.0259 53.2785 16.9609 51.29 16.0562 48.6966L14.1678 49.3554ZM17.7093 56.0106C19.2319 57.7409 21.0735 58.675 23.203 58.675V56.675C21.7365 56.675 20.4161 56.0591 19.2107 54.6894L17.7093 56.0106ZM62.6067 59.907L61.982 60.6879L62.6067 59.907ZM63.7227 57.303L63.4801 56.3329L63.4602 56.3378L63.4405 56.3436L63.7227 57.303ZM68.6517 55.908L68.9679 56.8567L68.9807 56.8524L68.9934 56.8478L68.6517 55.908ZM71.7207 53.955L70.9573 53.3091V53.3091L71.7207 53.955ZM71.5347 13.035L70.8276 13.7421L70.857 13.7715L70.8887 13.7984L71.5347 13.035ZM68.6517 11.454L68.9062 10.4869L68.6517 11.454ZM64.8387 10.71L64.9738 9.71917L64.9615 9.71749L64.9491 9.71611L64.8387 10.71ZM63.1647 10.245L62.6347 11.093L62.6943 11.1303L62.7585 11.1588L63.1647 10.245ZM63.1647 7.362L63.6947 8.20999L63.7071 8.2022L63.7194 8.19405L63.1647 7.362ZM65.1177 6.711L65.2007 7.70754L65.2144 7.7064L65.2281 7.70488L65.1177 6.711ZM74.1387 4.944L74.4281 5.90121L74.1387 4.944ZM82.1367 1.038L82.6958 1.86707L82.7757 1.81321L82.8438 1.7451L82.1367 1.038ZM82.4157 0.944995V1.945H82.5779L82.7319 1.89368L82.4157 0.944995ZM83.9967 1.131L83.4822 1.98849L83.5763 2.04497L83.6804 2.07968L83.9967 1.131ZM84.5547 1.782L85.5517 1.85869L85.5547 1.8204V1.782H84.5547ZM84.2757 4.572L85.2688 4.68884V4.68884L84.2757 4.572ZM85.1127 54.048L84.3755 54.7237L84.3902 54.7397L84.4056 54.7551L85.1127 54.048ZM88.2747 55.908L87.9329 56.8478L87.9521 56.8548L87.9715 56.8609L88.2747 55.908ZM93.3897 57.396L93.1265 58.3608L93.1368 58.3636L93.1471 58.3661L93.3897 57.396ZM94.5987 57.954L93.974 58.7349V58.7349L94.5987 57.954ZM73.8597 59.907L73.824 58.9076L73.8597 59.907ZM68.5587 60.093L68.5242 59.0936L68.5058 59.0942L68.4874 59.0955L68.5587 60.093ZM63.7227 59.279C63.4932 59.279 63.3472 59.2188 63.2314 59.1261L61.982 60.6879C62.4861 61.0912 63.0842 61.279 63.7227 61.279V59.279ZM63.2314 59.1261C63.1729 59.0794 63.1563 59.0493 63.1523 59.0413C63.1493 59.0352 63.1417 59.0194 63.1417 58.977H61.1417C61.1417 59.6755 61.4531 60.2648 61.982 60.6879L63.2314 59.1261ZM63.1417 58.977C63.1417 58.8152 63.1852 58.724 63.2639 58.6406C63.3645 58.5341 63.5785 58.3877 64.0048 58.2624L63.4405 56.3436C62.8128 56.5283 62.2363 56.8159 61.8099 57.2674C61.3616 57.742 61.1417 58.3328 61.1417 58.977H63.1417ZM63.9652 58.2731C65.9633 57.7736 67.633 57.3017 68.9679 56.8567L68.3354 54.9593C67.0663 55.3823 65.45 55.8404 63.4801 56.3329L63.9652 58.2731ZM68.9934 56.8478C70.4625 56.3136 71.6551 55.5806 72.484 54.6009L70.9573 53.3091C70.4222 53.9414 69.5688 54.5104 68.3099 54.9682L68.9934 56.8478ZM72.484 54.6009C73.371 53.5528 73.7437 52.1428 73.7437 50.514H71.7437C71.7437 51.8612 71.4344 52.7452 70.9573 53.3091L72.484 54.6009ZM73.7437 50.514V16.197H71.7437V50.514H73.7437ZM73.7437 16.197C73.7437 14.5858 73.2828 13.2043 72.1806 12.2716L70.8887 13.7984C71.3985 14.2297 71.7437 14.9562 71.7437 16.197H73.7437ZM72.2418 12.3279C71.354 11.4401 70.228 10.8348 68.9062 10.4869L68.3972 12.4211C69.4313 12.6932 70.2273 13.1419 70.8276 13.7421L72.2418 12.3279ZM68.9062 10.4869C67.6842 10.1654 66.3729 9.90996 64.9738 9.71917L64.7036 11.7008C66.0324 11.882 67.2631 12.1226 68.3972 12.4211L68.9062 10.4869ZM64.9491 9.71611C64.5017 9.66641 64.0431 9.54111 63.5708 9.33119L62.7585 11.1588C63.4022 11.4449 64.0596 11.6296 64.7282 11.7039L64.9491 9.71611ZM63.6947 9.397C63.5438 9.30271 63.4207 9.16138 63.4207 8.757H61.4207C61.4207 9.71662 61.7935 10.5673 62.6347 11.093L63.6947 9.397ZM63.4207 8.757C63.4207 8.45682 63.5116 8.3244 63.6947 8.20999L62.6347 6.514C61.8257 7.01959 61.4207 7.81717 61.4207 8.757H63.4207ZM63.7194 8.19405C64.1212 7.92617 64.6058 7.75712 65.2007 7.70754L65.0346 5.71445C64.1415 5.78888 63.3242 6.05382 62.61 6.52994L63.7194 8.19405ZM65.2281 7.70488C68.6246 7.32749 71.693 6.72808 74.4281 5.90121L73.8493 3.98679C71.2523 4.77192 68.3067 5.3505 65.0072 5.71711L65.2281 7.70488ZM74.4281 5.90121C77.2034 5.06216 79.9594 3.71258 82.6958 1.86707L81.5775 0.208928C78.982 1.95941 76.406 3.21383 73.8493 3.98679L74.4281 5.90121ZM82.8438 1.7451C82.6521 1.93678 82.4458 1.945 82.4157 1.945V-0.0550047C82.1375 -0.0550047 81.7452 0.0152168 81.4295 0.330903L82.8438 1.7451ZM82.7319 1.89368C82.8215 1.86382 82.9008 1.852 82.9737 1.852V-0.148003C82.6745 -0.148003 82.3819 -0.097827 82.0994 -0.00368887L82.7319 1.89368ZM82.9737 1.852C83.1699 1.852 83.3322 1.89854 83.4822 1.98849L84.5112 0.273507C84.0411 -0.00854152 83.5214 -0.148003 82.9737 -0.148003V1.852ZM83.6804 2.07968C83.7559 2.10484 83.7169 2.10867 83.6559 2.03754C83.6239 2.00023 83.5956 1.95298 83.5768 1.89976C83.5584 1.84768 83.5547 1.80554 83.5547 1.782H85.5547C85.5547 1.41007 85.4364 1.04158 85.1744 0.735953C84.9275 0.447828 84.6094 0.281152 84.3129 0.182314L83.6804 2.07968ZM83.5576 1.7053C83.4969 2.49451 83.4054 3.41065 83.2825 4.45516L85.2688 4.68884C85.3939 3.62534 85.4884 2.68148 85.5517 1.85869L83.5576 1.7053ZM83.2825 4.45516C83.1524 5.56113 83.0897 6.90497 83.0897 8.478H85.0897C85.0897 6.95102 85.1509 5.69087 85.2688 4.68884L83.2825 4.45516ZM83.0897 8.478V50.886H85.0897V8.478H83.0897ZM83.0897 50.886C83.0897 52.411 83.4725 53.7387 84.3755 54.7237L85.8498 53.3723C85.3888 52.8693 85.0897 52.089 85.0897 50.886H83.0897ZM84.4056 54.7551C85.2843 55.6339 86.4806 56.3197 87.9329 56.8478L88.6164 54.9682C87.3407 54.5043 86.429 53.9501 85.8198 53.3409L84.4056 54.7551ZM87.9715 56.8609C89.3534 57.3006 91.0728 57.8007 93.1265 58.3608L93.6528 56.4312C91.6145 55.8753 89.9239 55.3834 88.5779 54.9551L87.9715 56.8609ZM93.1471 58.3661C93.5422 58.4649 93.8037 58.5986 93.974 58.7349L95.2234 57.1731C94.7737 56.8134 94.2291 56.5751 93.6322 56.4259L93.1471 58.3661ZM93.974 58.7349C94.0226 58.7738 94.0637 58.8144 94.0637 58.977H96.0637C96.0637 58.2716 95.7947 57.6302 95.2234 57.1731L93.974 58.7349ZM94.0637 58.977C94.0637 59.0847 94.0479 59.1346 94.0431 59.147C94.0407 59.1533 94.0457 59.1404 94.06 59.1281C94.0825 59.1086 94.0118 59.186 93.6687 59.186V61.186C94.2555 61.186 94.8824 61.0619 95.3698 60.6394C95.8847 60.1932 96.0637 59.5744 96.0637 58.977H94.0637ZM93.6687 59.186C92.1942 59.186 90.5629 59.1553 88.7741 59.0936L88.7052 61.0924C90.5124 61.1547 92.1671 61.186 93.6687 61.186V59.186ZM88.7741 59.0936C86.9765 59.0316 85.2099 58.9696 83.4744 58.9076L83.403 60.9064C85.1394 60.9684 86.9068 61.0304 88.7052 61.0924L88.7741 59.0936ZM83.4744 58.9076C81.7289 58.8453 80.1358 58.814 78.6957 58.814V60.814C80.1075 60.814 81.6764 60.8447 83.403 60.9064L83.4744 58.9076ZM78.6957 58.814C77.194 58.814 75.57 58.8453 73.824 58.9076L73.8954 60.9064C75.6214 60.8447 77.2213 60.814 78.6957 60.814V58.814ZM73.824 58.9076C72.0884 58.9696 70.3218 59.0316 68.5242 59.0936L68.5931 61.0924C70.3915 61.0304 72.1589 60.9684 73.8954 60.9064L73.824 58.9076ZM68.4874 59.0955C66.7713 59.2181 65.1833 59.279 63.7227 59.279V61.279C65.238 61.279 66.8741 61.2159 68.6299 61.0905L68.4874 59.0955Z" fill="white"/>
</svg>
