<svg width="1438" height="262" viewBox="0 0 1438 262" fill="none" xmlns="http://www.w3.org/2000/svg">
<g opacity="0.17">
<path d="M645.392 184.237C620.775 155.536 596.002 126.922 571.333 98.2645C545.912 68.7477 520.284 39.3191 495.356 9.51601C490.738 4.00915 486.225 2.18088 478.495 2.33507C454.008 2.79764 429.494 2.55534 404.981 2.57737C402.517 2.57737 400.027 2.57737 397.562 2.57737C402.465 4.86822 407.497 6.80664 412.011 9.4279C421.271 14.8026 427.627 22.5342 433.982 30.1557C451.44 51.0817 468.56 72.184 486.199 92.9779C533.124 148.377 581.761 202.696 631.047 256.62C634.73 260.651 638.518 262.148 644.173 261.62C646.377 261.422 647.337 260.981 647.337 258.999C647.337 235.76 647.415 212.543 647.337 189.304C647.337 187.608 646.637 185.603 645.444 184.237H645.392Z" fill="white"/>
<path d="M963.234 242.544C962.3 238.359 961.937 234.041 961.937 229.768C961.807 164.787 961.781 99.7842 961.781 34.8033C961.781 31.8076 962.015 28.8119 962.43 25.8382C963.363 19.1639 965.205 12.6437 971.327 7.88581C974.077 5.72712 977.656 4.31737 980.847 2.55518H879.059C891.458 7.29107 894.934 16.5206 896.594 26.4329C897.528 32.0279 897.528 37.755 897.528 43.416C897.606 98.5507 897.658 153.685 897.58 208.82C897.58 218.666 897.424 228.512 896.724 238.337C896.231 245.011 894.208 251.575 888.008 256.311C885.181 258.47 881.549 259.857 878.54 261.443H981.314C969.745 258.756 965.179 251.399 963.182 242.522L963.234 242.544Z" fill="white"/>
<path d="M-3 261.422H100.422C87.2707 258.536 83.3797 249.879 81.5898 240.011C80.9932 236.641 80.8635 233.183 80.8635 229.768C80.7857 165.316 80.7338 100.864 80.7338 36.4337C80.7338 32.689 80.8895 28.9223 81.3564 25.2217C82.6793 15.1331 86.3887 6.32216 99.5402 3.08413C99.6699 3.06211 99.6958 2.75372 99.7737 2.53345H-2.04023C10.6703 7.48962 14.3538 16.8513 15.7804 27.2042C16.4808 32.4026 16.5846 37.6672 16.5846 42.9097C16.6624 98.2646 16.6883 153.598 16.6365 208.952C16.6365 218.689 16.6883 228.447 15.7545 238.139C14.7429 248.58 10.7481 257.897 -3 261.422Z" fill="white"/>
<path d="M1261.18 34.9576C1269.37 22.2037 1280.35 11.8288 1297 6.60829C1298.19 6.23382 1299.31 5.61706 1300.45 5.11042C1300.32 4.8461 1300.22 4.55974 1300.09 4.29541C1288.73 7.20303 1277.16 9.60402 1266.08 13.1284C1229.25 24.847 1200.61 44.7818 1183.28 75.0034C1168.68 100.467 1164.32 127.319 1169.77 155.315C1176.79 191.529 1197.65 220.12 1234.82 239.702C1262.45 254.263 1293.16 260.034 1325.3 261.422C1327.64 261.532 1329.97 261.201 1332.3 261.069C1320.27 259.461 1309.48 255.76 1299.57 250.055C1287.82 243.293 1278.69 234.482 1271.19 224.415C1250.8 197.035 1242.71 166.461 1240.09 134.808C1238.97 121.437 1240.14 107.846 1241.44 94.4316C1243.43 73.5937 1249.24 53.4826 1261.18 34.9356V34.9576Z" fill="white"/>
<path d="M139.591 92.0527C138.735 92.5594 138.191 92.8237 137.724 93.1761C124.183 103.992 110.694 114.851 97.05 125.578C94.6895 127.451 94.4301 128.794 96.1421 131.24C125.947 173.51 155.648 215.825 185.245 258.206C187.061 260.827 189.007 261.642 192.457 261.62C220.005 261.51 247.553 261.554 275.101 261.554H279.148C273.752 257.413 267.397 253.668 262.78 248.756C248.435 233.535 233.597 218.49 221.068 202.212C195.31 168.774 170.901 134.61 145.947 100.732C143.845 97.868 141.744 95.0044 139.591 92.0527Z" fill="white"/>
<path d="M735.975 129.896C735.923 138.2 744.535 145.403 754.548 145.425C764.872 145.469 773.692 138.266 773.821 129.698C773.925 122.076 764.639 114.785 754.807 114.785C744.665 114.785 736.027 121.702 735.975 129.874V129.896Z" fill="white"/>
<path d="M304.776 114.851C294.452 114.983 286.021 122.01 286.203 130.314C286.384 138.531 295.1 145.535 305.035 145.447C315.411 145.359 324.127 138.046 324.049 129.521C323.971 121.856 314.607 114.719 304.776 114.851Z" fill="white"/>
<path d="M1095.4 129.676C1095.48 122.186 1085.93 114.741 1076.31 114.807C1066.11 114.873 1057.58 121.768 1057.55 129.962C1057.53 138.244 1066.16 145.425 1076.18 145.447C1086.5 145.447 1095.3 138.244 1095.4 129.698V129.676Z" fill="white"/>
<path d="M607.91 4.44961C611.516 5.96951 615.406 7.18101 618.571 9.20754C631.723 17.644 638.545 29.4507 642.176 42.6672C643.992 49.2534 645.185 55.9717 646.612 62.4919C647.935 56.1039 648.999 49.5838 650.685 43.1958C654.005 30.7504 659.945 19.3181 671.774 10.9257C676.676 7.44534 682.772 5.15449 687.675 2.62134H604.201C605.368 3.61257 606.691 3.94298 607.884 4.44961H607.91Z" fill="white"/>
<path d="M460.624 247.522C456.811 243.073 453.594 238.117 450.948 233.072C446.072 223.733 444.178 213.71 442.751 203.556C441.169 209.789 440.002 216.111 437.901 222.213C431.675 240.341 421.792 255.981 397.953 261.267H485.163C474.683 259.483 466.642 254.527 460.598 247.5L460.624 247.522Z" fill="white"/>
<path d="M1400.58 1.89436C1398.61 8.98719 1392.8 12.842 1384.68 12.4455C1373.21 11.8948 1361.82 10.2207 1350.44 8.76691C1344.83 8.04001 1339.36 6.69634 1333.81 5.61699C1370.38 17.3796 1392.04 39.5833 1401.64 71.0164V0C1401.07 1.01326 1400.71 1.43178 1400.55 1.89436H1400.58Z" fill="white"/>
<path d="M187.036 44.8921C185.765 46.7644 184.312 48.5487 182.937 50.3769C183.845 50.443 184.182 50.2007 184.519 49.9144C206.387 31.6096 227.995 13.0405 257.021 2.75366H181.303C192.379 7.48956 196.063 12.7101 195.751 22.6004C195.492 30.7505 191.757 37.9755 187.036 44.8921Z" fill="white"/>
<path d="M1398.63 250.099C1412.23 245.297 1424.42 238.557 1435.99 231.002C1438.11 229.614 1438.43 227.653 1436.66 224.988C1424.63 234.306 1413.03 243.733 1398.63 250.121V250.099Z" fill="white"/>
<path d="M645.392 184.237C620.775 155.536 596.002 126.922 571.333 98.2645C545.912 68.7477 520.284 39.3191 495.356 9.51601C490.738 4.00915 486.225 2.18088 478.495 2.33507C454.008 2.79764 429.494 2.55534 404.981 2.57737C402.517 2.57737 400.027 2.57737 397.562 2.57737C402.465 4.86822 407.497 6.80664 412.011 9.4279C421.271 14.8026 427.627 22.5342 433.982 30.1557C451.44 51.0817 468.56 72.184 486.199 92.9779C533.124 148.377 581.761 202.696 631.047 256.62C634.73 260.651 638.518 262.148 644.173 261.62C646.377 261.422 647.337 260.981 647.337 258.999C647.337 235.76 647.415 212.543 647.337 189.304C647.337 187.608 646.637 185.603 645.444 184.237H645.392Z" fill="white"/>
<path d="M963.234 242.544C962.3 238.359 961.937 234.041 961.937 229.768C961.807 164.787 961.781 99.7842 961.781 34.8033C961.781 31.8076 962.015 28.8119 962.43 25.8382C963.363 19.1639 965.205 12.6437 971.327 7.88581C974.077 5.72712 977.656 4.31737 980.847 2.55518H879.059C891.458 7.29107 894.934 16.5206 896.594 26.4329C897.528 32.0279 897.528 37.755 897.528 43.416C897.606 98.5507 897.658 153.685 897.58 208.82C897.58 218.666 897.424 228.512 896.724 238.337C896.231 245.011 894.208 251.575 888.008 256.311C885.181 258.47 881.549 259.857 878.54 261.443H981.314C969.745 258.756 965.179 251.399 963.182 242.522L963.234 242.544Z" fill="white"/>
<path d="M-3 261.422H100.422C87.2707 258.536 83.3797 249.879 81.5898 240.011C80.9932 236.641 80.8635 233.183 80.8635 229.768C80.7857 165.316 80.7338 100.864 80.7338 36.4337C80.7338 32.689 80.8895 28.9223 81.3564 25.2217C82.6793 15.1331 86.3887 6.32216 99.5402 3.08413C99.6699 3.06211 99.6958 2.75372 99.7737 2.53345H-2.04023C10.6703 7.48962 14.3538 16.8513 15.7804 27.2042C16.4808 32.4026 16.5846 37.6672 16.5846 42.9097C16.6624 98.2646 16.6883 153.598 16.6365 208.952C16.6365 218.689 16.6883 228.447 15.7545 238.139C14.7429 248.58 10.7481 257.897 -3 261.422Z" fill="white"/>
<path d="M1261.18 34.9576C1269.37 22.2037 1280.35 11.8288 1297 6.60829C1298.19 6.23382 1299.31 5.61706 1300.45 5.11042C1300.32 4.8461 1300.22 4.55974 1300.09 4.29541C1288.73 7.20303 1277.16 9.60402 1266.08 13.1284C1229.25 24.847 1200.61 44.7818 1183.28 75.0034C1168.68 100.467 1164.32 127.319 1169.77 155.315C1176.79 191.529 1197.65 220.12 1234.82 239.702C1262.45 254.263 1293.16 260.034 1325.3 261.422C1327.64 261.532 1329.97 261.201 1332.3 261.069C1320.27 259.461 1309.48 255.76 1299.57 250.055C1287.82 243.293 1278.69 234.482 1271.19 224.415C1250.8 197.035 1242.71 166.461 1240.09 134.808C1238.97 121.437 1240.14 107.846 1241.44 94.4316C1243.43 73.5937 1249.24 53.4826 1261.18 34.9356V34.9576Z" fill="white"/>
<path d="M139.591 92.0527C138.735 92.5594 138.191 92.8237 137.724 93.1761C124.183 103.992 110.694 114.851 97.05 125.578C94.6895 127.451 94.4301 128.794 96.1421 131.24C125.947 173.51 155.648 215.825 185.245 258.206C187.061 260.827 189.007 261.642 192.457 261.62C220.005 261.51 247.553 261.554 275.101 261.554H279.148C273.752 257.413 267.397 253.668 262.78 248.756C248.435 233.535 233.597 218.49 221.068 202.212C195.31 168.774 170.901 134.61 145.947 100.732C143.845 97.868 141.744 95.0044 139.591 92.0527Z" fill="white"/>
<path d="M735.975 129.896C735.923 138.2 744.535 145.403 754.548 145.425C764.872 145.469 773.692 138.266 773.821 129.698C773.925 122.076 764.639 114.785 754.807 114.785C744.665 114.785 736.027 121.702 735.975 129.874V129.896Z" fill="white"/>
<path d="M304.776 114.851C294.452 114.983 286.021 122.01 286.203 130.314C286.384 138.531 295.1 145.535 305.035 145.447C315.411 145.359 324.127 138.046 324.049 129.521C323.971 121.856 314.607 114.719 304.776 114.851Z" fill="white"/>
<path d="M1095.4 129.676C1095.48 122.186 1085.93 114.741 1076.31 114.807C1066.11 114.873 1057.58 121.768 1057.55 129.962C1057.53 138.244 1066.16 145.425 1076.18 145.447C1086.5 145.447 1095.3 138.244 1095.4 129.698V129.676Z" fill="white"/>
<path d="M607.91 4.44961C611.516 5.96951 615.406 7.18101 618.571 9.20754C631.723 17.644 638.545 29.4507 642.176 42.6672C643.992 49.2534 645.185 55.9717 646.612 62.4919C647.935 56.1039 648.999 49.5838 650.685 43.1958C654.005 30.7504 659.945 19.3181 671.774 10.9257C676.676 7.44534 682.772 5.15449 687.675 2.62134H604.201C605.368 3.61257 606.691 3.94298 607.884 4.44961H607.91Z" fill="white"/>
<path d="M460.624 247.522C456.811 243.073 453.594 238.117 450.948 233.072C446.072 223.733 444.178 213.71 442.751 203.556C441.169 209.789 440.002 216.111 437.901 222.213C431.675 240.341 421.792 255.981 397.953 261.267H485.163C474.683 259.483 466.642 254.527 460.598 247.5L460.624 247.522Z" fill="white"/>
<path d="M1400.58 1.89436C1398.61 8.98719 1392.8 12.842 1384.68 12.4455C1373.21 11.8948 1361.82 10.2207 1350.44 8.76691C1344.83 8.04001 1339.36 6.69634 1333.81 5.61699C1370.38 17.3796 1392.04 39.5833 1401.64 71.0164V0C1401.07 1.01326 1400.71 1.43178 1400.55 1.89436H1400.58Z" fill="white"/>
<path d="M187.036 44.8921C185.765 46.7644 184.312 48.5487 182.937 50.3769C183.845 50.443 184.182 50.2007 184.519 49.9144C206.387 31.6096 227.995 13.0405 257.021 2.75366H181.303C192.379 7.48956 196.063 12.7101 195.751 22.6004C195.492 30.7505 191.757 37.9755 187.036 44.8921Z" fill="white"/>
<path d="M1398.63 250.099C1412.23 245.297 1424.42 238.557 1435.99 231.002C1438.11 229.614 1438.43 227.653 1436.66 224.988C1424.63 234.306 1413.03 243.733 1398.63 250.121V250.099Z" fill="white"/>
<path d="M645.392 184.237C620.775 155.536 596.002 126.922 571.333 98.2645C545.912 68.7477 520.284 39.3191 495.356 9.51601C490.738 4.00915 486.225 2.18088 478.495 2.33507C454.008 2.79764 429.494 2.55534 404.981 2.57737C402.517 2.57737 400.027 2.57737 397.562 2.57737C402.465 4.86822 407.497 6.80664 412.011 9.4279C421.271 14.8026 427.627 22.5342 433.982 30.1557C451.44 51.0817 468.56 72.184 486.199 92.9779C533.124 148.377 581.761 202.696 631.047 256.62C634.73 260.651 638.518 262.148 644.173 261.62C646.377 261.422 647.337 260.981 647.337 258.999C647.337 235.76 647.415 212.543 647.337 189.304C647.337 187.608 646.637 185.603 645.444 184.237H645.392Z" fill="white"/>
<path d="M963.234 242.544C962.3 238.359 961.937 234.041 961.937 229.768C961.807 164.787 961.781 99.7842 961.781 34.8033C961.781 31.8076 962.015 28.8119 962.43 25.8382C963.363 19.1639 965.205 12.6437 971.327 7.88581C974.077 5.72712 977.656 4.31737 980.847 2.55518H879.059C891.458 7.29107 894.934 16.5206 896.594 26.4329C897.528 32.0279 897.528 37.755 897.528 43.416C897.606 98.5507 897.658 153.685 897.58 208.82C897.58 218.666 897.424 228.512 896.724 238.337C896.231 245.011 894.208 251.575 888.008 256.311C885.181 258.47 881.549 259.857 878.54 261.443H981.314C969.745 258.756 965.179 251.399 963.182 242.522L963.234 242.544Z" fill="white"/>
<path d="M-3 261.422H100.422C87.2707 258.536 83.3797 249.879 81.5898 240.011C80.9932 236.641 80.8635 233.183 80.8635 229.768C80.7857 165.316 80.7338 100.864 80.7338 36.4337C80.7338 32.689 80.8895 28.9223 81.3564 25.2217C82.6793 15.1331 86.3887 6.32216 99.5402 3.08413C99.6699 3.06211 99.6958 2.75372 99.7737 2.53345H-2.04023C10.6703 7.48962 14.3538 16.8513 15.7804 27.2042C16.4808 32.4026 16.5846 37.6672 16.5846 42.9097C16.6624 98.2646 16.6883 153.598 16.6365 208.952C16.6365 218.689 16.6883 228.447 15.7545 238.139C14.7429 248.58 10.7481 257.897 -3 261.422Z" fill="white"/>
<path d="M1261.18 34.9576C1269.37 22.2037 1280.35 11.8288 1297 6.60829C1298.19 6.23382 1299.31 5.61706 1300.45 5.11042C1300.32 4.8461 1300.22 4.55974 1300.09 4.29541C1288.73 7.20303 1277.16 9.60402 1266.08 13.1284C1229.25 24.847 1200.61 44.7818 1183.28 75.0034C1168.68 100.467 1164.32 127.319 1169.77 155.315C1176.79 191.529 1197.65 220.12 1234.82 239.702C1262.45 254.263 1293.16 260.034 1325.3 261.422C1327.64 261.532 1329.97 261.201 1332.3 261.069C1320.27 259.461 1309.48 255.76 1299.57 250.055C1287.82 243.293 1278.69 234.482 1271.19 224.415C1250.8 197.035 1242.71 166.461 1240.09 134.808C1238.97 121.437 1240.14 107.846 1241.44 94.4316C1243.43 73.5937 1249.24 53.4826 1261.18 34.9356V34.9576Z" fill="white"/>
<path d="M139.591 92.0527C138.735 92.5594 138.191 92.8237 137.724 93.1761C124.183 103.992 110.694 114.851 97.05 125.578C94.6895 127.451 94.4301 128.794 96.1421 131.24C125.947 173.51 155.648 215.825 185.245 258.206C187.061 260.827 189.007 261.642 192.457 261.62C220.005 261.51 247.553 261.554 275.101 261.554H279.148C273.752 257.413 267.397 253.668 262.78 248.756C248.435 233.535 233.597 218.49 221.068 202.212C195.31 168.774 170.901 134.61 145.947 100.732C143.845 97.868 141.744 95.0044 139.591 92.0527Z" fill="white"/>
<path d="M735.975 129.896C735.923 138.2 744.535 145.403 754.548 145.425C764.872 145.469 773.692 138.266 773.821 129.698C773.925 122.076 764.639 114.785 754.807 114.785C744.665 114.785 736.027 121.702 735.975 129.874V129.896Z" fill="white"/>
<path d="M304.776 114.851C294.452 114.983 286.021 122.01 286.203 130.314C286.384 138.531 295.1 145.535 305.035 145.447C315.411 145.359 324.127 138.046 324.049 129.521C323.971 121.856 314.607 114.719 304.776 114.851Z" fill="white"/>
<path d="M1095.4 129.676C1095.48 122.186 1085.93 114.741 1076.31 114.807C1066.11 114.873 1057.58 121.768 1057.55 129.962C1057.53 138.244 1066.16 145.425 1076.18 145.447C1086.5 145.447 1095.3 138.244 1095.4 129.698V129.676Z" fill="white"/>
<path d="M607.91 4.44961C611.516 5.96951 615.406 7.18101 618.571 9.20754C631.723 17.644 638.545 29.4507 642.176 42.6672C643.992 49.2534 645.185 55.9717 646.612 62.4919C647.935 56.1039 648.999 49.5838 650.685 43.1958C654.005 30.7504 659.945 19.3181 671.774 10.9257C676.676 7.44534 682.772 5.15449 687.675 2.62134H604.201C605.368 3.61257 606.691 3.94298 607.884 4.44961H607.91Z" fill="white"/>
<path d="M460.624 247.522C456.811 243.073 453.594 238.117 450.948 233.072C446.072 223.733 444.178 213.71 442.751 203.556C441.169 209.789 440.002 216.111 437.901 222.213C431.675 240.341 421.792 255.981 397.953 261.267H485.163C474.683 259.483 466.642 254.527 460.598 247.5L460.624 247.522Z" fill="white"/>
<path d="M1400.58 1.89436C1398.61 8.98719 1392.8 12.842 1384.68 12.4455C1373.21 11.8948 1361.82 10.2207 1350.44 8.76691C1344.83 8.04001 1339.36 6.69634 1333.81 5.61699C1370.38 17.3796 1392.04 39.5833 1401.64 71.0164V0C1401.07 1.01326 1400.71 1.43178 1400.55 1.89436H1400.58Z" fill="white"/>
<path d="M187.036 44.8921C185.765 46.7644 184.312 48.5487 182.937 50.3769C183.845 50.443 184.182 50.2007 184.519 49.9144C206.387 31.6096 227.995 13.0405 257.021 2.75366H181.303C192.379 7.48956 196.063 12.7101 195.751 22.6004C195.492 30.7505 191.757 37.9755 187.036 44.8921Z" fill="white"/>
<path d="M1398.63 250.099C1412.23 245.297 1424.42 238.557 1435.99 231.002C1438.11 229.614 1438.43 227.653 1436.66 224.988C1424.63 234.306 1413.03 243.733 1398.63 250.121V250.099Z" fill="white"/>
<path d="M645.392 184.237C620.775 155.536 596.002 126.922 571.333 98.2645C545.912 68.7477 520.284 39.3191 495.356 9.51601C490.738 4.00915 486.225 2.18088 478.495 2.33507C454.008 2.79764 429.494 2.55534 404.981 2.57737C402.517 2.57737 400.027 2.57737 397.562 2.57737C402.465 4.86822 407.497 6.80664 412.011 9.4279C421.271 14.8026 427.627 22.5342 433.982 30.1557C451.44 51.0817 468.56 72.184 486.199 92.9779C533.124 148.377 581.761 202.696 631.047 256.62C634.73 260.651 638.518 262.148 644.173 261.62C646.377 261.422 647.337 260.981 647.337 258.999C647.337 235.76 647.415 212.543 647.337 189.304C647.337 187.608 646.637 185.603 645.444 184.237H645.392Z" fill="white"/>
<path d="M963.234 242.544C962.3 238.359 961.937 234.041 961.937 229.768C961.807 164.787 961.781 99.7842 961.781 34.8033C961.781 31.8076 962.015 28.8119 962.43 25.8382C963.363 19.1639 965.205 12.6437 971.327 7.88581C974.077 5.72712 977.656 4.31737 980.847 2.55518H879.059C891.458 7.29107 894.934 16.5206 896.594 26.4329C897.528 32.0279 897.528 37.755 897.528 43.416C897.606 98.5507 897.658 153.685 897.58 208.82C897.58 218.666 897.424 228.512 896.724 238.337C896.231 245.011 894.208 251.575 888.008 256.311C885.181 258.47 881.549 259.857 878.54 261.443H981.314C969.745 258.756 965.179 251.399 963.182 242.522L963.234 242.544Z" fill="white"/>
<path d="M-3 261.422H100.422C87.2707 258.536 83.3797 249.879 81.5898 240.011C80.9932 236.641 80.8635 233.183 80.8635 229.768C80.7857 165.316 80.7338 100.864 80.7338 36.4337C80.7338 32.689 80.8895 28.9223 81.3564 25.2217C82.6793 15.1331 86.3887 6.32216 99.5402 3.08413C99.6699 3.06211 99.6958 2.75372 99.7737 2.53345H-2.04023C10.6703 7.48962 14.3538 16.8513 15.7804 27.2042C16.4808 32.4026 16.5846 37.6672 16.5846 42.9097C16.6624 98.2646 16.6883 153.598 16.6365 208.952C16.6365 218.689 16.6883 228.447 15.7545 238.139C14.7429 248.58 10.7481 257.897 -3 261.422Z" fill="white"/>
<path d="M1261.18 34.9576C1269.37 22.2037 1280.35 11.8288 1297 6.60829C1298.19 6.23382 1299.31 5.61706 1300.45 5.11042C1300.32 4.8461 1300.22 4.55974 1300.09 4.29541C1288.73 7.20303 1277.16 9.60402 1266.08 13.1284C1229.25 24.847 1200.61 44.7818 1183.28 75.0034C1168.68 100.467 1164.32 127.319 1169.77 155.315C1176.79 191.529 1197.65 220.12 1234.82 239.702C1262.45 254.263 1293.16 260.034 1325.3 261.422C1327.64 261.532 1329.97 261.201 1332.3 261.069C1320.27 259.461 1309.48 255.76 1299.57 250.055C1287.82 243.293 1278.69 234.482 1271.19 224.415C1250.8 197.035 1242.71 166.461 1240.09 134.808C1238.97 121.437 1240.14 107.846 1241.44 94.4316C1243.43 73.5937 1249.24 53.4826 1261.18 34.9356V34.9576Z" fill="white"/>
<path d="M139.591 92.0527C138.735 92.5594 138.191 92.8237 137.724 93.1761C124.183 103.992 110.694 114.851 97.05 125.578C94.6895 127.451 94.4301 128.794 96.1421 131.24C125.947 173.51 155.648 215.825 185.245 258.206C187.061 260.827 189.007 261.642 192.457 261.62C220.005 261.51 247.553 261.554 275.101 261.554H279.148C273.752 257.413 267.397 253.668 262.78 248.756C248.435 233.535 233.597 218.49 221.068 202.212C195.31 168.774 170.901 134.61 145.947 100.732C143.845 97.868 141.744 95.0044 139.591 92.0527Z" fill="white"/>
<path d="M735.975 129.896C735.923 138.2 744.535 145.403 754.548 145.425C764.872 145.469 773.692 138.266 773.821 129.698C773.925 122.076 764.639 114.785 754.807 114.785C744.665 114.785 736.027 121.702 735.975 129.874V129.896Z" fill="white"/>
<path d="M304.776 114.851C294.452 114.983 286.021 122.01 286.203 130.314C286.384 138.531 295.1 145.535 305.035 145.447C315.411 145.359 324.127 138.046 324.049 129.521C323.971 121.856 314.607 114.719 304.776 114.851Z" fill="white"/>
<path d="M1095.4 129.676C1095.48 122.186 1085.93 114.741 1076.31 114.807C1066.11 114.873 1057.58 121.768 1057.55 129.962C1057.53 138.244 1066.16 145.425 1076.18 145.447C1086.5 145.447 1095.3 138.244 1095.4 129.698V129.676Z" fill="white"/>
<path d="M607.91 4.44961C611.516 5.96951 615.406 7.18101 618.571 9.20754C631.723 17.644 638.545 29.4507 642.176 42.6672C643.992 49.2534 645.185 55.9717 646.612 62.4919C647.935 56.1039 648.999 49.5838 650.685 43.1958C654.005 30.7504 659.945 19.3181 671.774 10.9257C676.676 7.44534 682.772 5.15449 687.675 2.62134H604.201C605.368 3.61257 606.691 3.94298 607.884 4.44961H607.91Z" fill="white"/>
<path d="M460.624 247.522C456.811 243.073 453.594 238.117 450.948 233.072C446.072 223.733 444.178 213.71 442.751 203.556C441.169 209.789 440.002 216.111 437.901 222.213C431.675 240.341 421.792 255.981 397.953 261.267H485.163C474.683 259.483 466.642 254.527 460.598 247.5L460.624 247.522Z" fill="white"/>
<path d="M1400.58 1.89436C1398.61 8.98719 1392.8 12.842 1384.68 12.4455C1373.21 11.8948 1361.82 10.2207 1350.44 8.76691C1344.83 8.04001 1339.36 6.69634 1333.81 5.61699C1370.38 17.3796 1392.04 39.5833 1401.64 71.0164V0C1401.07 1.01326 1400.71 1.43178 1400.55 1.89436H1400.58Z" fill="white"/>
<path d="M187.036 44.8921C185.765 46.7644 184.312 48.5487 182.937 50.3769C183.845 50.443 184.182 50.2007 184.519 49.9144C206.387 31.6096 227.995 13.0405 257.021 2.75366H181.303C192.379 7.48956 196.063 12.7101 195.751 22.6004C195.492 30.7505 191.757 37.9755 187.036 44.8921Z" fill="white"/>
<path d="M1398.63 250.099C1412.23 245.297 1424.42 238.557 1435.99 231.002C1438.11 229.614 1438.43 227.653 1436.66 224.988C1424.63 234.306 1413.03 243.733 1398.63 250.121V250.099Z" fill="white"/>
</g>
</svg>
