<svg width="1440" height="349" viewBox="0 0 1440 349" fill="none" xmlns="http://www.w3.org/2000/svg">
<g opacity="0.02">
<path d="M648.621 245.28C623.995 207.068 599.214 168.974 574.537 130.822C549.107 91.5254 523.469 52.3463 498.532 12.6688C493.913 5.33736 489.398 2.90334 481.665 3.10862C457.169 3.72445 432.647 3.40187 408.126 3.4312C405.66 3.4312 403.169 3.4312 400.704 3.4312C405.608 6.48106 410.643 9.06172 415.158 12.5515C424.422 19.7069 430.779 30.0002 437.137 40.1469C454.6 68.0062 471.727 96.1001 489.372 123.784C536.314 197.537 584.968 269.854 634.271 341.644C637.956 347.01 641.745 349.004 647.401 348.3C649.607 348.036 650.567 347.45 650.567 344.811C650.567 313.872 650.645 282.963 650.567 252.024C650.567 249.766 649.867 247.098 648.673 245.28H648.621Z" fill="#132229"/>
<path d="M966.576 322.905C965.641 317.333 965.278 311.585 965.278 305.896C965.148 219.385 965.122 132.845 965.122 46.3347C965.122 42.3465 965.356 38.3582 965.771 34.3992C966.705 25.5136 968.548 16.8332 974.672 10.4988C977.422 7.62493 981.003 5.74809 984.195 3.40204H882.371C894.775 9.70705 898.252 21.9945 899.913 35.191C900.847 42.6397 900.847 50.2644 900.847 57.8011C900.925 131.203 900.976 204.605 900.899 278.007C900.899 291.116 900.743 304.224 900.042 317.303C899.549 326.189 897.525 334.928 891.323 341.233C888.495 344.107 884.862 345.955 881.852 348.066H984.662C973.089 344.488 968.522 334.694 966.524 322.875L966.576 322.905Z" fill="#132229"/>
<path d="M0 348.037H103.459C90.3026 344.195 86.4102 332.67 84.6198 319.532C84.0229 315.045 83.8932 310.441 83.8932 305.896C83.8153 220.089 83.7634 134.282 83.7634 48.5049C83.7634 43.5196 83.9191 38.5049 84.3862 33.5782C85.7096 20.147 89.4203 8.41679 102.576 4.10593C102.706 4.0766 102.732 3.66604 102.81 3.37279H0.960114C13.6751 9.97105 17.3599 22.4344 18.7871 36.2175C19.4877 43.1383 19.5915 50.1471 19.5915 57.1266C19.6694 130.822 19.6953 204.488 19.6434 278.183C19.6434 291.145 19.6953 304.136 18.7611 317.04C17.7491 330.94 13.753 343.345 0 348.037Z" fill="#132229"/>
<path d="M1264.62 46.5397C1272.82 29.5602 1283.8 15.7479 1300.46 8.79768C1301.65 8.29914 1302.77 7.47803 1303.91 6.80354C1303.78 6.45163 1303.68 6.0704 1303.55 5.71849C1292.18 9.58947 1280.61 12.786 1269.53 17.4781C1232.68 33.0793 1204.03 59.619 1186.7 99.8537C1172.09 133.754 1167.73 169.502 1173.18 206.775C1180.21 254.986 1201.08 293.051 1238.26 319.121C1265.9 338.506 1296.62 346.189 1328.77 348.036C1331.11 348.183 1333.44 347.743 1335.78 347.567C1323.74 345.426 1312.94 340.5 1303.03 332.904C1291.27 323.901 1282.14 312.171 1274.64 298.769C1254.24 262.318 1246.15 221.614 1243.53 179.473C1242.41 161.672 1243.58 143.578 1244.88 125.719C1246.88 97.9769 1252.69 71.2026 1264.62 46.5104V46.5397Z" fill="#132229"/>
<path d="M142.642 122.552C141.785 123.226 141.24 123.578 140.773 124.047C127.228 138.446 113.734 152.904 100.085 167.185C97.7239 169.678 97.4645 171.467 99.1771 174.722C128.993 230.998 158.704 287.332 188.312 343.755C190.128 347.245 192.075 348.33 195.526 348.3C223.084 348.154 250.642 348.212 278.199 348.212H282.247C276.85 342.699 270.493 337.714 265.874 331.174C251.524 310.91 236.681 290.881 224.148 269.209C198.38 224.693 173.962 179.209 148.999 134.106C146.897 130.294 144.795 126.481 142.642 122.552Z" fill="#132229"/>
<path d="M739.236 172.933C739.184 183.989 747.8 193.579 757.816 193.608C768.144 193.667 776.966 184.077 777.096 172.669C777.2 162.523 767.91 152.816 758.075 152.816C747.929 152.816 739.288 162.024 739.236 172.904V172.933Z" fill="#132229"/>
<path d="M307.885 152.904C297.557 153.08 289.123 162.435 289.305 173.491C289.487 184.429 298.206 193.755 308.144 193.637C318.524 193.52 327.243 183.784 327.165 172.435C327.087 162.23 317.719 152.728 307.885 152.904Z" fill="#132229"/>
<path d="M1098.79 172.64C1098.87 162.669 1089.32 152.757 1079.69 152.845C1069.49 152.933 1060.95 162.112 1060.93 173.021C1060.9 184.048 1069.54 193.608 1079.56 193.637C1089.89 193.637 1098.68 184.048 1098.79 172.669V172.64Z" fill="#132229"/>
<path d="M611.126 5.92392C614.733 7.94739 618.625 9.5603 621.791 12.2583C634.947 23.49 641.772 39.2085 645.405 56.8039C647.221 65.5722 648.415 74.5165 649.842 83.1969C651.165 74.6925 652.229 66.0121 653.916 57.5077C657.237 40.9387 663.18 25.7187 675.012 14.5457C679.917 9.91221 686.015 6.86234 690.919 3.4899H607.415C608.583 4.80955 609.906 5.24944 611.1 5.92392H611.126Z" fill="#132229"/>
<path d="M463.788 329.532C459.974 323.609 456.756 317.01 454.109 310.295C449.231 297.861 447.336 284.518 445.909 270.998C444.326 279.298 443.159 287.714 441.057 295.837C434.829 319.972 424.942 340.793 401.095 347.832H488.336C477.852 345.456 469.808 338.858 463.762 329.503L463.788 329.532Z" fill="#132229"/>
<path d="M1404.08 2.522C1402.1 11.9649 1396.29 17.0968 1388.17 16.569C1376.7 15.8358 1365.31 13.6071 1353.92 11.6716C1348.31 10.7039 1342.84 8.91499 1337.28 7.47803C1373.87 23.1379 1395.54 52.6981 1405.14 94.5458V0C1404.57 1.34898 1404.21 1.90617 1404.05 2.522H1404.08Z" fill="#132229"/>
<path d="M190.103 59.7659C188.831 62.2585 187.378 64.6339 186.003 67.0679C186.911 67.1559 187.249 66.8333 187.586 66.4521C209.461 42.0825 231.076 17.361 260.113 3.66597H184.368C195.448 9.97098 199.133 16.9211 198.822 30.0883C198.562 40.9388 194.826 50.5576 190.103 59.7659Z" fill="#132229"/>
<path d="M1402.13 332.963C1415.73 326.57 1427.92 317.596 1439.5 307.538C1441.62 305.69 1441.94 303.08 1440.17 299.532C1428.13 311.937 1416.53 324.488 1402.13 332.992V332.963Z" fill="#132229"/>
<path d="M648.621 245.28C623.995 207.068 599.214 168.974 574.537 130.822C549.107 91.5254 523.469 52.3463 498.532 12.6688C493.913 5.33736 489.398 2.90334 481.665 3.10862C457.169 3.72445 432.647 3.40187 408.126 3.4312C405.66 3.4312 403.169 3.4312 400.704 3.4312C405.608 6.48106 410.643 9.06172 415.158 12.5515C424.422 19.7069 430.779 30.0002 437.137 40.1469C454.6 68.0062 471.727 96.1001 489.372 123.784C536.314 197.537 584.968 269.854 634.271 341.644C637.956 347.01 641.745 349.004 647.401 348.3C649.607 348.036 650.567 347.45 650.567 344.811C650.567 313.872 650.645 282.963 650.567 252.024C650.567 249.766 649.867 247.098 648.673 245.28H648.621Z" fill="#132229"/>
<path d="M966.576 322.905C965.641 317.333 965.278 311.585 965.278 305.896C965.148 219.385 965.122 132.845 965.122 46.3347C965.122 42.3465 965.356 38.3582 965.771 34.3992C966.705 25.5136 968.548 16.8332 974.672 10.4988C977.422 7.62493 981.003 5.74809 984.195 3.40204H882.371C894.775 9.70705 898.252 21.9945 899.913 35.191C900.847 42.6397 900.847 50.2644 900.847 57.8011C900.925 131.203 900.976 204.605 900.899 278.007C900.899 291.116 900.743 304.224 900.042 317.303C899.549 326.189 897.525 334.928 891.323 341.233C888.495 344.107 884.862 345.955 881.852 348.066H984.662C973.089 344.488 968.522 334.694 966.524 322.875L966.576 322.905Z" fill="#132229"/>
<path d="M0 348.037H103.459C90.3026 344.195 86.4102 332.67 84.6198 319.532C84.0229 315.045 83.8932 310.441 83.8932 305.896C83.8153 220.089 83.7634 134.282 83.7634 48.5049C83.7634 43.5196 83.9191 38.5049 84.3862 33.5782C85.7096 20.147 89.4203 8.41679 102.576 4.10593C102.706 4.0766 102.732 3.66604 102.81 3.37279H0.960114C13.6751 9.97105 17.3599 22.4344 18.7871 36.2175C19.4877 43.1383 19.5915 50.1471 19.5915 57.1266C19.6694 130.822 19.6953 204.488 19.6434 278.183C19.6434 291.145 19.6953 304.136 18.7611 317.04C17.7491 330.94 13.753 343.345 0 348.037Z" fill="#132229"/>
<path d="M1264.62 46.5397C1272.82 29.5602 1283.8 15.7479 1300.46 8.79768C1301.65 8.29914 1302.77 7.47803 1303.91 6.80354C1303.78 6.45163 1303.68 6.0704 1303.55 5.71849C1292.18 9.58947 1280.61 12.786 1269.53 17.4781C1232.68 33.0793 1204.03 59.619 1186.7 99.8537C1172.09 133.754 1167.73 169.502 1173.18 206.775C1180.21 254.986 1201.08 293.051 1238.26 319.121C1265.9 338.506 1296.62 346.189 1328.77 348.036C1331.11 348.183 1333.44 347.743 1335.78 347.567C1323.74 345.426 1312.94 340.5 1303.03 332.904C1291.27 323.901 1282.14 312.171 1274.64 298.769C1254.24 262.318 1246.15 221.614 1243.53 179.473C1242.41 161.672 1243.58 143.578 1244.88 125.719C1246.88 97.9769 1252.69 71.2026 1264.62 46.5104V46.5397Z" fill="#132229"/>
<path d="M142.642 122.552C141.785 123.226 141.24 123.578 140.773 124.047C127.228 138.446 113.734 152.904 100.085 167.185C97.7239 169.678 97.4645 171.467 99.1771 174.722C128.993 230.998 158.704 287.332 188.312 343.755C190.128 347.245 192.075 348.33 195.526 348.3C223.084 348.154 250.642 348.212 278.199 348.212H282.247C276.85 342.699 270.493 337.714 265.874 331.174C251.524 310.91 236.681 290.881 224.148 269.209C198.38 224.693 173.962 179.209 148.999 134.106C146.897 130.294 144.795 126.481 142.642 122.552Z" fill="#132229"/>
<path d="M739.236 172.933C739.184 183.989 747.8 193.579 757.816 193.608C768.144 193.667 776.966 184.077 777.096 172.669C777.2 162.523 767.91 152.816 758.075 152.816C747.929 152.816 739.288 162.024 739.236 172.904V172.933Z" fill="#132229"/>
<path d="M307.885 152.904C297.557 153.08 289.123 162.435 289.305 173.491C289.487 184.429 298.206 193.755 308.144 193.637C318.524 193.52 327.243 183.784 327.165 172.435C327.087 162.23 317.719 152.728 307.885 152.904Z" fill="#132229"/>
<path d="M1098.79 172.64C1098.87 162.669 1089.32 152.757 1079.69 152.845C1069.49 152.933 1060.95 162.112 1060.93 173.021C1060.9 184.048 1069.54 193.608 1079.56 193.637C1089.89 193.637 1098.68 184.048 1098.79 172.669V172.64Z" fill="#132229"/>
<path d="M611.126 5.92392C614.733 7.94739 618.625 9.5603 621.791 12.2583C634.947 23.49 641.772 39.2085 645.405 56.8039C647.221 65.5722 648.415 74.5165 649.842 83.1969C651.165 74.6925 652.229 66.0121 653.916 57.5077C657.237 40.9387 663.18 25.7187 675.012 14.5457C679.917 9.91221 686.015 6.86234 690.919 3.4899H607.415C608.583 4.80955 609.906 5.24944 611.1 5.92392H611.126Z" fill="#132229"/>
<path d="M463.788 329.532C459.974 323.609 456.756 317.01 454.109 310.295C449.231 297.861 447.336 284.518 445.909 270.998C444.326 279.298 443.159 287.714 441.057 295.837C434.829 319.972 424.942 340.793 401.095 347.832H488.336C477.852 345.456 469.808 338.858 463.762 329.503L463.788 329.532Z" fill="#132229"/>
<path d="M1404.08 2.522C1402.1 11.9649 1396.29 17.0968 1388.17 16.569C1376.7 15.8358 1365.31 13.6071 1353.92 11.6716C1348.31 10.7039 1342.84 8.91499 1337.28 7.47803C1373.87 23.1379 1395.54 52.6981 1405.14 94.5458V0C1404.57 1.34898 1404.21 1.90617 1404.05 2.522H1404.08Z" fill="#132229"/>
<path d="M190.103 59.7659C188.831 62.2585 187.378 64.6339 186.003 67.0679C186.911 67.1559 187.249 66.8333 187.586 66.4521C209.461 42.0825 231.076 17.361 260.113 3.66597H184.368C195.448 9.97098 199.133 16.9211 198.822 30.0883C198.562 40.9388 194.826 50.5576 190.103 59.7659Z" fill="#132229"/>
<path d="M1402.13 332.963C1415.73 326.57 1427.92 317.596 1439.5 307.538C1441.62 305.69 1441.94 303.08 1440.17 299.532C1428.13 311.937 1416.53 324.488 1402.13 332.992V332.963Z" fill="#132229"/>
<path d="M648.621 245.28C623.995 207.068 599.214 168.974 574.537 130.822C549.107 91.5254 523.469 52.3463 498.532 12.6688C493.913 5.33736 489.398 2.90334 481.665 3.10862C457.169 3.72445 432.647 3.40187 408.126 3.4312C405.66 3.4312 403.169 3.4312 400.704 3.4312C405.608 6.48106 410.643 9.06172 415.158 12.5515C424.422 19.7069 430.779 30.0002 437.137 40.1469C454.6 68.0062 471.727 96.1001 489.372 123.784C536.314 197.537 584.968 269.854 634.271 341.644C637.956 347.01 641.745 349.004 647.401 348.3C649.607 348.036 650.567 347.45 650.567 344.811C650.567 313.872 650.645 282.963 650.567 252.024C650.567 249.766 649.867 247.098 648.673 245.28H648.621Z" fill="#132229"/>
<path d="M966.576 322.905C965.641 317.333 965.278 311.585 965.278 305.896C965.148 219.385 965.122 132.845 965.122 46.3347C965.122 42.3465 965.356 38.3582 965.771 34.3992C966.705 25.5136 968.548 16.8332 974.672 10.4988C977.422 7.62493 981.003 5.74809 984.195 3.40204H882.371C894.775 9.70705 898.252 21.9945 899.913 35.191C900.847 42.6397 900.847 50.2644 900.847 57.8011C900.925 131.203 900.976 204.605 900.899 278.007C900.899 291.116 900.743 304.224 900.042 317.303C899.549 326.189 897.525 334.928 891.323 341.233C888.495 344.107 884.862 345.955 881.852 348.066H984.662C973.089 344.488 968.522 334.694 966.524 322.875L966.576 322.905Z" fill="#132229"/>
<path d="M0 348.037H103.459C90.3026 344.195 86.4102 332.67 84.6198 319.532C84.0229 315.045 83.8932 310.441 83.8932 305.896C83.8153 220.089 83.7634 134.282 83.7634 48.5049C83.7634 43.5196 83.9191 38.5049 84.3862 33.5782C85.7096 20.147 89.4203 8.41679 102.576 4.10593C102.706 4.0766 102.732 3.66604 102.81 3.37279H0.960114C13.6751 9.97105 17.3599 22.4344 18.7871 36.2175C19.4877 43.1383 19.5915 50.1471 19.5915 57.1266C19.6694 130.822 19.6953 204.488 19.6434 278.183C19.6434 291.145 19.6953 304.136 18.7611 317.04C17.7491 330.94 13.753 343.345 0 348.037Z" fill="#132229"/>
<path d="M1264.62 46.5397C1272.82 29.5602 1283.8 15.7479 1300.46 8.79768C1301.65 8.29914 1302.77 7.47803 1303.91 6.80354C1303.78 6.45163 1303.68 6.0704 1303.55 5.71849C1292.18 9.58947 1280.61 12.786 1269.53 17.4781C1232.68 33.0793 1204.03 59.619 1186.7 99.8537C1172.09 133.754 1167.73 169.502 1173.18 206.775C1180.21 254.986 1201.08 293.051 1238.26 319.121C1265.9 338.506 1296.62 346.189 1328.77 348.036C1331.11 348.183 1333.44 347.743 1335.78 347.567C1323.74 345.426 1312.94 340.5 1303.03 332.904C1291.27 323.901 1282.14 312.171 1274.64 298.769C1254.24 262.318 1246.15 221.614 1243.53 179.473C1242.41 161.672 1243.58 143.578 1244.88 125.719C1246.88 97.9769 1252.69 71.2026 1264.62 46.5104V46.5397Z" fill="#132229"/>
<path d="M142.642 122.552C141.785 123.226 141.24 123.578 140.773 124.047C127.228 138.446 113.734 152.904 100.085 167.185C97.7239 169.678 97.4645 171.467 99.1771 174.722C128.993 230.998 158.704 287.332 188.312 343.755C190.128 347.245 192.075 348.33 195.526 348.3C223.084 348.154 250.642 348.212 278.199 348.212H282.247C276.85 342.699 270.493 337.714 265.874 331.174C251.524 310.91 236.681 290.881 224.148 269.209C198.38 224.693 173.962 179.209 148.999 134.106C146.897 130.294 144.795 126.481 142.642 122.552Z" fill="#132229"/>
<path d="M739.236 172.933C739.184 183.989 747.8 193.579 757.816 193.608C768.144 193.667 776.966 184.077 777.096 172.669C777.2 162.523 767.91 152.816 758.075 152.816C747.929 152.816 739.288 162.024 739.236 172.904V172.933Z" fill="#132229"/>
<path d="M307.885 152.904C297.557 153.08 289.123 162.435 289.305 173.491C289.487 184.429 298.206 193.755 308.144 193.637C318.524 193.52 327.243 183.784 327.165 172.435C327.087 162.23 317.719 152.728 307.885 152.904Z" fill="#132229"/>
<path d="M1098.79 172.64C1098.87 162.669 1089.32 152.757 1079.69 152.845C1069.49 152.933 1060.95 162.112 1060.93 173.021C1060.9 184.048 1069.54 193.608 1079.56 193.637C1089.89 193.637 1098.68 184.048 1098.79 172.669V172.64Z" fill="#132229"/>
<path d="M611.126 5.92392C614.733 7.94739 618.625 9.5603 621.791 12.2583C634.947 23.49 641.772 39.2085 645.405 56.8039C647.221 65.5722 648.415 74.5165 649.842 83.1969C651.165 74.6925 652.229 66.0121 653.916 57.5077C657.237 40.9387 663.18 25.7187 675.012 14.5457C679.917 9.91221 686.015 6.86234 690.919 3.4899H607.415C608.583 4.80955 609.906 5.24944 611.1 5.92392H611.126Z" fill="#132229"/>
<path d="M463.788 329.532C459.974 323.609 456.756 317.01 454.109 310.295C449.231 297.861 447.336 284.518 445.909 270.998C444.326 279.298 443.159 287.714 441.057 295.837C434.829 319.972 424.942 340.793 401.095 347.832H488.336C477.852 345.456 469.808 338.858 463.762 329.503L463.788 329.532Z" fill="#132229"/>
<path d="M1404.08 2.522C1402.1 11.9649 1396.29 17.0968 1388.17 16.569C1376.7 15.8358 1365.31 13.6071 1353.92 11.6716C1348.31 10.7039 1342.84 8.91499 1337.28 7.47803C1373.87 23.1379 1395.54 52.6981 1405.14 94.5458V0C1404.57 1.34898 1404.21 1.90617 1404.05 2.522H1404.08Z" fill="#132229"/>
<path d="M190.103 59.7659C188.831 62.2585 187.378 64.6339 186.003 67.0679C186.911 67.1559 187.249 66.8333 187.586 66.4521C209.461 42.0825 231.076 17.361 260.113 3.66597H184.368C195.448 9.97098 199.133 16.9211 198.822 30.0883C198.562 40.9388 194.826 50.5576 190.103 59.7659Z" fill="#132229"/>
<path d="M1402.13 332.963C1415.73 326.57 1427.92 317.596 1439.5 307.538C1441.62 305.69 1441.94 303.08 1440.17 299.532C1428.13 311.937 1416.53 324.488 1402.13 332.992V332.963Z" fill="#132229"/>
<path d="M648.621 245.28C623.995 207.068 599.214 168.974 574.537 130.822C549.107 91.5254 523.469 52.3463 498.532 12.6688C493.913 5.33736 489.398 2.90334 481.665 3.10862C457.169 3.72445 432.647 3.40187 408.126 3.4312C405.66 3.4312 403.169 3.4312 400.704 3.4312C405.608 6.48106 410.643 9.06172 415.158 12.5515C424.422 19.7069 430.779 30.0002 437.137 40.1469C454.6 68.0062 471.727 96.1001 489.372 123.784C536.314 197.537 584.968 269.854 634.271 341.644C637.956 347.01 641.745 349.004 647.401 348.3C649.607 348.036 650.567 347.45 650.567 344.811C650.567 313.872 650.645 282.963 650.567 252.024C650.567 249.766 649.867 247.098 648.673 245.28H648.621Z" fill="#132229"/>
<path d="M966.576 322.905C965.641 317.333 965.278 311.585 965.278 305.896C965.148 219.385 965.122 132.845 965.122 46.3347C965.122 42.3465 965.356 38.3582 965.771 34.3992C966.705 25.5136 968.548 16.8332 974.672 10.4988C977.422 7.62493 981.003 5.74809 984.195 3.40204H882.371C894.775 9.70705 898.252 21.9945 899.913 35.191C900.847 42.6397 900.847 50.2644 900.847 57.8011C900.925 131.203 900.976 204.605 900.899 278.007C900.899 291.116 900.743 304.224 900.042 317.303C899.549 326.189 897.525 334.928 891.323 341.233C888.495 344.107 884.862 345.955 881.852 348.066H984.662C973.089 344.488 968.522 334.694 966.524 322.875L966.576 322.905Z" fill="#132229"/>
<path d="M0 348.037H103.459C90.3026 344.195 86.4102 332.67 84.6198 319.532C84.0229 315.045 83.8932 310.441 83.8932 305.896C83.8153 220.089 83.7634 134.282 83.7634 48.5049C83.7634 43.5196 83.9191 38.5049 84.3862 33.5782C85.7096 20.147 89.4203 8.41679 102.576 4.10593C102.706 4.0766 102.732 3.66604 102.81 3.37279H0.960114C13.6751 9.97105 17.3599 22.4344 18.7871 36.2175C19.4877 43.1383 19.5915 50.1471 19.5915 57.1266C19.6694 130.822 19.6953 204.488 19.6434 278.183C19.6434 291.145 19.6953 304.136 18.7611 317.04C17.7491 330.94 13.753 343.345 0 348.037Z" fill="#132229"/>
<path d="M1264.62 46.5397C1272.82 29.5602 1283.8 15.7479 1300.46 8.79768C1301.65 8.29914 1302.77 7.47803 1303.91 6.80354C1303.78 6.45163 1303.68 6.0704 1303.55 5.71849C1292.18 9.58947 1280.61 12.786 1269.53 17.4781C1232.68 33.0793 1204.03 59.619 1186.7 99.8537C1172.09 133.754 1167.73 169.502 1173.18 206.775C1180.21 254.986 1201.08 293.051 1238.26 319.121C1265.9 338.506 1296.62 346.189 1328.77 348.036C1331.11 348.183 1333.44 347.743 1335.78 347.567C1323.74 345.426 1312.94 340.5 1303.03 332.904C1291.27 323.901 1282.14 312.171 1274.64 298.769C1254.24 262.318 1246.15 221.614 1243.53 179.473C1242.41 161.672 1243.58 143.578 1244.88 125.719C1246.88 97.9769 1252.69 71.2026 1264.62 46.5104V46.5397Z" fill="#132229"/>
<path d="M142.642 122.552C141.785 123.226 141.24 123.578 140.773 124.047C127.228 138.446 113.734 152.904 100.085 167.185C97.7239 169.678 97.4645 171.467 99.1771 174.722C128.993 230.998 158.704 287.332 188.312 343.755C190.128 347.245 192.075 348.33 195.526 348.3C223.084 348.154 250.641 348.212 278.199 348.212H282.247C276.85 342.699 270.493 337.714 265.874 331.174C251.524 310.91 236.681 290.881 224.148 269.209C198.38 224.693 173.962 179.209 148.999 134.106C146.897 130.294 144.795 126.481 142.642 122.552Z" fill="#132229"/>
<path d="M739.236 172.933C739.184 183.989 747.8 193.579 757.816 193.608C768.144 193.667 776.966 184.077 777.096 172.669C777.2 162.523 767.91 152.816 758.075 152.816C747.929 152.816 739.288 162.024 739.236 172.904V172.933Z" fill="#132229"/>
<path d="M307.885 152.904C297.557 153.08 289.123 162.435 289.305 173.491C289.487 184.429 298.206 193.755 308.144 193.637C318.524 193.52 327.243 183.784 327.165 172.435C327.087 162.23 317.719 152.728 307.885 152.904Z" fill="#132229"/>
<path d="M1098.79 172.64C1098.87 162.669 1089.32 152.757 1079.69 152.845C1069.49 152.933 1060.95 162.112 1060.93 173.021C1060.9 184.048 1069.54 193.608 1079.56 193.637C1089.89 193.637 1098.68 184.048 1098.79 172.669V172.64Z" fill="#132229"/>
<path d="M611.126 5.92392C614.733 7.94739 618.625 9.5603 621.791 12.2583C634.947 23.49 641.772 39.2085 645.405 56.8039C647.221 65.5722 648.415 74.5165 649.842 83.1969C651.165 74.6925 652.229 66.0121 653.916 57.5077C657.237 40.9387 663.18 25.7187 675.012 14.5457C679.917 9.91221 686.015 6.86234 690.919 3.4899H607.415C608.583 4.80955 609.906 5.24944 611.1 5.92392H611.126Z" fill="#132229"/>
<path d="M463.788 329.532C459.974 323.609 456.756 317.01 454.109 310.295C449.231 297.861 447.336 284.518 445.909 270.998C444.326 279.298 443.159 287.714 441.057 295.837C434.829 319.972 424.942 340.793 401.095 347.832H488.336C477.852 345.456 469.808 338.858 463.762 329.503L463.788 329.532Z" fill="#132229"/>
<path d="M1404.08 2.522C1402.1 11.9649 1396.29 17.0968 1388.17 16.569C1376.7 15.8358 1365.31 13.6071 1353.92 11.6716C1348.31 10.7039 1342.84 8.91499 1337.28 7.47803C1373.87 23.1379 1395.54 52.6981 1405.14 94.5458V0C1404.57 1.34898 1404.21 1.90617 1404.05 2.522H1404.08Z" fill="#132229"/>
<path d="M190.103 59.7659C188.831 62.2585 187.378 64.6339 186.003 67.0679C186.911 67.1559 187.249 66.8333 187.586 66.4521C209.461 42.0825 231.076 17.361 260.113 3.66597H184.368C195.448 9.97098 199.133 16.9211 198.822 30.0883C198.562 40.9388 194.826 50.5576 190.103 59.7659Z" fill="#132229"/>
<path d="M1402.13 332.963C1415.73 326.57 1427.92 317.596 1439.5 307.538C1441.62 305.69 1441.94 303.08 1440.17 299.532C1428.13 311.937 1416.53 324.488 1402.13 332.992V332.963Z" fill="#132229"/>
</g>
</svg>
